<?xml version="1.0" standalone="no"?>
<!DOCTYPE svg PUBLIC "-//W3C//DTD SVG 1.1//EN" "http://www.w3.org/Graphics/SVG/1.1/DTD/svg11.dtd" >
<svg xmlns="http://www.w3.org/2000/svg">
<metadata>Generated by IcoMoon</metadata>
<defs>
<font id="icomoon" horiz-adv-x="1024">
<font-face units-per-em="1024" ascent="960" descent="-64" />
<missing-glyph horiz-adv-x="1024" />
<glyph unicode="&#x20;" horiz-adv-x="512" d="" />
<glyph unicode="&#xe900;" glyph-name="add" d="M560.64 509.44h194.56v-97.28h-194.56v-194.56h-97.28v194.56h-194.56v97.28h194.56v194.56h97.28v-194.56zM512-25.6c-268.631 0-486.4 217.769-486.4 486.4s217.769 486.4 486.4 486.4v0c268.631 0 486.4-217.769 486.4-486.4s-217.769-486.4-486.4-486.4v0zM512 71.68c214.905 0 389.12 174.215 389.12 389.12s-174.215 389.12-389.12 389.12v0c-214.905 0-389.12-174.215-389.12-389.12s174.215-389.12 389.12-389.12v0z" />
<glyph unicode="&#xe901;" glyph-name="add-solid" d="M560.64 509.44v194.56h-97.28v-194.56h-194.56v-97.28h194.56v-194.56h97.28v194.56h194.56v97.28h-194.56zM512-25.6c-268.631 0-486.4 217.769-486.4 486.4s217.769 486.4 486.4 486.4v0c268.631 0 486.4-217.769 486.4-486.4s-217.769-486.4-486.4-486.4v0z" />
<glyph unicode="&#xe902;" glyph-name="empty" d="M284.16 925.44h456v-928.96h-456v928.96zM728 909.76v-897.92h-432v897.92h432zM752 940.8h-480v-960h480v960z" />
<glyph unicode="&#xe903;" glyph-name="data" d="M170.667 725.248c0 0 0.128 4.053 9.088 12.288 10.453 9.6 28.629 20.608 55.723 31.147 63.957 24.96 163.029 41.984 276.523 41.984s212.565-17.024 276.565-41.984c27.051-10.539 45.269-21.547 55.723-31.147 8.747-8.064 9.045-11.989 9.045-12.288 0-0.128-0.299-4.053-9.088-12.117-10.453-9.6-28.629-20.608-55.723-31.147-63.957-24.96-163.029-41.984-276.523-41.984s-212.565 17.024-276.565 41.984c-27.051 10.539-45.269 21.547-55.723 31.147-8.875 8.192-9.045 12.117-9.045 12.117zM853.333 318.635v-190.763c-1.749-4.139-4.096-7.723-9.259-12.416-10.453-9.6-28.629-20.565-55.595-31.061-63.787-24.832-162.517-41.728-276.48-41.728s-212.693 16.896-276.48 41.728c-27.008 10.496-45.141 21.461-55.595 31.061-5.12 4.693-7.509 8.277-8.491 10.325l-0.256 192.597c10.581-5.376 21.76-10.325 33.365-14.848 76.672-29.824 186.752-47.531 307.456-47.531s230.784 17.707 307.456 47.531c11.819 4.608 23.168 9.6 33.877 15.104zM853.333 617.515v-190.421c0-0.171 0-0.341 0-0.555-1.749-4.139-4.096-7.723-9.259-12.416-10.453-9.6-28.629-20.565-55.595-31.061-63.787-24.832-162.517-41.728-276.48-41.728s-212.693 16.896-276.48 41.728c-27.008 10.496-45.141 21.461-55.595 31.061-5.12 4.693-7.509 8.277-8.491 10.325-0.043 1.707-0.171 3.371-0.384 4.992l-0.213 188.032c10.581-5.461 21.888-10.411 33.621-15.019 76.843-29.952 187.221-47.787 307.541-47.787s230.699 17.835 307.541 47.787c11.776 4.608 23.125 9.6 33.792 15.061zM85.333 725.334v-597.333c0-2.475 0.085-4.949 0.299-7.424 2.432-28.373 18.133-51.072 36.565-68.011 21.248-19.499 50.133-35.157 82.347-47.701 76.672-29.824 186.752-47.531 307.456-47.531s230.784 17.707 307.456 47.531c32.213 12.544 61.099 28.203 82.347 47.701 18.432 16.939 34.133 39.637 36.565 68.011 0.213 2.475 0.299 4.949 0.299 7.424v597.333c0 2.389-0.085 4.779-0.299 7.168-2.347 28.331-18.005 50.987-36.352 67.84-21.248 19.584-50.219 35.285-82.475 47.872-76.843 29.952-187.221 47.787-307.541 47.787s-230.699-17.835-307.541-47.787c-32.256-12.587-61.227-28.331-82.475-47.872-18.347-16.853-34.005-39.552-36.352-67.84-0.213-2.389-0.299-4.779-0.299-7.168z" />
<glyph unicode="&#xe904;" glyph-name="edit2" d="M469.333 810.667h-298.667c-35.328 0-67.413-14.379-90.496-37.504s-37.504-55.168-37.504-90.496v-597.333c0-35.328 14.379-67.413 37.504-90.496s55.168-37.504 90.496-37.504h597.333c35.328 0 67.413 14.379 90.496 37.504s37.504 55.168 37.504 90.496v298.667c0 23.552-19.115 42.667-42.667 42.667s-42.667-19.115-42.667-42.667v-298.667c0-11.776-4.736-22.4-12.501-30.165s-18.389-12.501-30.165-12.501h-597.333c-11.776 0-22.4 4.736-30.165 12.501s-12.501 18.389-12.501 30.165v597.333c0 11.776 4.736 22.4 12.501 30.165s18.389 12.501 30.165 12.501h298.667c23.552 0 42.667 19.115 42.667 42.667s-19.115 42.667-42.667 42.667zM759.168 862.166l-405.333-405.333c-5.205-5.163-9.259-11.947-11.221-19.84l-42.667-170.667c-1.664-6.4-1.792-13.568 0-20.693 5.717-22.869 28.885-36.779 51.755-31.061l170.667 42.667c7.125 1.749 14.080 5.504 19.84 11.221l405.333 405.333c25.984 25.984 38.997 60.16 38.997 94.165s-13.013 68.181-38.997 94.165-60.203 39.040-94.208 39.040-68.181-13.013-94.165-38.997zM819.499 801.835c9.344 9.344 21.504 13.995 33.835 13.995s24.491-4.651 33.835-13.995 13.995-21.504 13.995-33.835-4.651-24.491-13.995-33.835l-396.971-396.971-90.197-22.571 22.571 90.197z" />
<glyph unicode="&#xe905;" glyph-name="check-outline" d="M512 832c212.081 0 384-171.919 384-384s-171.919-384-384-384-384 171.919-384 384 171.919 384 384 384zM512 784c-185.568 0-336-150.432-336-336s150.432-336 336-336 336 150.432 336 336-150.432 336-336 336zM337.599 464.961l111.024-111.024 239.040 239.040c4.311 4.164 10.188 6.728 16.664 6.728 13.254 0 24-10.746 24-24 0-6.486-2.573-12.368-6.75-16.687l-255.993-255.993c-4.341-4.338-10.338-7.019-16.961-7.019s-12.618 2.682-16.962 7.019v0l-127.999 127.999c-4.172 4.314-6.745 10.195-6.745 16.682 0 13.254 10.746 24 24 24 6.476 0 12.354-2.565 16.673-6.737l-0.006 0.006z" />
<glyph unicode="&#xe906;" glyph-name="brightness-down" d="M512 307.2c-84.831 0-153.6 68.769-153.6 153.6s68.769 153.6 153.6 153.6v0c84.831 0 153.6-68.769 153.6-153.6s-68.769-153.6-153.6-153.6v0zM460.8 768c0 28.277 22.923 51.2 51.2 51.2s51.2-22.923 51.2-51.2v0c0-28.277-22.923-51.2-51.2-51.2s-51.2 22.923-51.2 51.2v0zM693.248 714.24c9.446 10.984 23.36 17.897 38.889 17.897 28.277 0 51.2-22.923 51.2-51.2 0-15.528-6.913-29.442-17.829-38.832l-0.067-0.057c-9.446-10.984-23.36-17.897-38.889-17.897-28.277 0-51.2 22.923-51.2 51.2 0 15.528 6.913 29.442 17.829 38.832l0.067 0.057zM819.2 512c28.277 0 51.2-22.923 51.2-51.2s-22.923-51.2-51.2-51.2v0c-28.277 0-51.2 22.923-51.2 51.2s22.923 51.2 51.2 51.2v0zM765.44 279.552c10.984-9.446 17.897-23.36 17.897-38.889 0-28.277-22.923-51.2-51.2-51.2-15.528 0-29.442 6.913-38.832 17.829l-0.057 0.067c-10.984 9.446-17.897 23.36-17.897 38.889 0 28.277 22.923 51.2 51.2 51.2 15.528 0 29.442-6.913 38.832-17.829l0.057-0.067zM563.2 153.6c0-28.277-22.923-51.2-51.2-51.2s-51.2 22.923-51.2 51.2v0c0 28.277 22.923 51.2 51.2 51.2s51.2-22.923 51.2-51.2v0zM330.752 207.36c-9.446-10.984-23.36-17.897-38.889-17.897-28.277 0-51.2 22.923-51.2 51.2 0 15.528 6.913 29.442 17.829 38.832l0.067 0.057c9.446 10.984 23.36 17.897 38.889 17.897 28.277 0 51.2-22.923 51.2-51.2 0-15.528-6.913-29.442-17.829-38.832l-0.067-0.057zM204.8 409.6c-28.277 0-51.2 22.923-51.2 51.2s22.923 51.2 51.2 51.2v0c28.277 0 51.2-22.923 51.2-51.2s-22.923-51.2-51.2-51.2v0zM258.56 642.048c-10.984 9.446-17.897 23.36-17.897 38.889 0 28.277 22.923 51.2 51.2 51.2 15.528 0 29.442-6.913 38.832-17.829l0.057-0.067c10.984-9.446 17.897-23.36 17.897-38.889 0-28.277-22.923-51.2-51.2-51.2-15.528 0-29.442 6.913-38.832 17.829l-0.057 0.067z" />
<glyph unicode="&#xe907;" glyph-name="edit1" d="M976.292 615.472c-12.218 0-22.104-9.886-22.104-22.104v-486.395c0-48.872-39.654-88.415-88.415-88.415h-707.544c-48.872 0-88.415 39.543-88.415 88.415v707.544c0 48.872 39.543 88.415 88.415 88.415h486.395c12.218 0 22.104 9.886 22.104 22.104s-9.886 22.104-22.104 22.104h-486.395c-73.309 0-132.624-59.425-132.624-132.624v-707.433c0-73.309 59.425-132.624 132.624-132.624h707.433c73.309 0 132.624 59.425 132.624 132.624v486.284c0.111 12.218-9.774 22.104-21.992 22.104zM268.747 217.603l188.716 32.323 508.5 508.5c19.994 19.994 32.435 47.652 32.435 78.197 0 61.091-49.538 110.519-110.519 110.519-30.546 0-58.203-12.33-78.197-32.435l-508.5-508.5-32.435-188.604zM840.892 883.495c11.997 11.997 28.546 19.438 46.874 19.438 36.655 0 66.311-29.768 66.311-66.311 0-18.328-7.442-34.878-19.438-46.874l-28.546-28.546-93.747 93.747 28.546 28.546zM781.023 823.626l93.747-93.747-406.977-407.089v93.747h-93.747l406.977 407.089zM341.168 372.331h82.417v-82.417l-99.522-16.994 17.106 99.412z" />
<glyph unicode="&#xe908;" glyph-name="config" horiz-adv-x="1025" d="M970.164 524.894c-7.438 24.422-27.014 38.836-53.352 39.016-21.744 0.152-43.488 0.136-65.232-0.058-4.154-0.036-5.84 1.124-7.388 5.256-6.292 16.812-13.096 33.444-20.132 49.96-1.476 3.464-1.526 5.32 1.246 8.042 15.524 15.22 30.852 30.65 46.188 46.058 24.148 24.256 24.206 59.328 0.086 83.57-20.318 20.426-40.68 40.796-61.114 61.106-24.458 24.322-59.45 24.148-83.966-0.332-14.724-14.71-29.506-29.368-44.086-44.222-2.542-2.584-4.356-2.584-7.582-1.174-18.152 7.928-36.388 15.668-54.756 23.068-3.528 1.426-4.788 2.858-4.78 6.66 0.036 22.486 0.44 44.992-0.512 67.45-1.124 26.734-18.692 46.066-44.978 51.358-0.692 0.136-1.324 0.59-1.98 0.9-35.33 0-70.66 0-105.998 0-11.246-2.65-22.076-6.17-31.234-13.666-14.22-11.636-21.844-26.36-21.766-44.928 0.086-20.26-0.094-40.528 0.116-60.79 0.036-3.86-1.34-5.35-4.81-6.71-17.41-6.84-34.732-13.904-51.956-21.204-3.268-1.39-5.176-1.216-7.66 1.324-13.774 14.090-27.67 28.058-41.624 41.976-24.58 24.524-59.378 24.596-83.944 0.144-20.686-20.592-41.306-41.242-61.862-61.964-22.6-22.78-22.744-58.298-0.274-81.172 14.328-14.588 28.894-28.944 43.358-43.394 1.844-1.844 3.672-3.254 1.814-6.524-10.484-18.454-18.548-37.944-24.35-58.37-0.194-0.692-0.576-1.332-1.022-2.332-18 0-36.022 0.136-54.036-0.064-7.964-0.086-16.156 0.23-23.824-1.512-24.862-5.652-40.636-21.082-46.54-46.166-0.144-0.67-0.634-1.268-0.964-1.894 0-35.33 0-70.66 0-105.998 2.944-10.786 6.848-21.096 14.522-29.564 12.658-13.96 28.246-21.276 47.24-21.204 20.636 0.086 41.278-0.086 61.906 0.108 3.866 0.036 5.494-1.124 6.408-4.918 4.22-17.46 12.124-33.4 20.908-48.946 1.18-2.096 2.34-4.204 3.7-6.646-1.44-1.512-2.794-2.996-4.212-4.414-14.716-14.732-29.484-29.404-44.158-44.18-23.156-23.32-23.378-58.572-0.302-81.98 20.88-21.182 41.918-42.22 63.094-63.108 23.248-22.924 58.262-22.832 81.518 0.108 15.884 15.668 31.63 31.472 47.29 47.362 2.498 2.534 4.256 2.678 7.546 1.252 15.976-6.912 32.098-13.5 48.284-19.908 3.060-1.21 4.378-2.412 4.334-5.854-0.266-20.074-0.028-40.162-0.454-60.228-0.742-35.072 17.172-58.024 51.552-65.448 0.512-0.108 0.95-0.526 1.426-0.8 35.33 0 70.66 0 105.998 0 9.252 2.65 18.396 5.45 26.028 11.794 12.65 10.52 20.354 23.868 20.852 40.27 0.748 24.322 0.568 48.686 0.382 73.022-0.036 4.904 1.88 6.292 6.076 7.898 17.956 6.862 35.704 14.278 55.426 22.262 7.516-7.82 16.438-17.252 25.524-26.51 8.072-8.222 16.308-16.28 24.516-24.364 24.4-24.040 59.356-23.998 83.62 0.144 20.556 20.448 41.068 40.94 61.532 61.48 23.624 23.716 23.674 59.090 0.136 82.778-16.244 16.344-32.516 32.674-48.916 48.866-2.556 2.52-2.606 4.292-1.152 7.56 7.006 15.724 13.774 31.572 20.124 47.57 1.52 3.83 3.232 4.946 7.128 4.918 21.932-0.166 43.862-0.108 65.794-0.072 31.024 0.044 51.236 16.978 57.002 47.672 0.13 0.684 0.604 1.304 0.922 1.952 0 36.072 0 72.152 0 108.224-0.886 3.176-1.72 6.344-2.678 9.482zM911.14 412.596c-28.628 0.274-57.262 0.144-85.896 0.122-15.372-0.008-25.394-7.33-29.326-22.198-7.156-27.080-17.856-52.618-32.090-76.73-6.66-11.29-5.428-22.076 2.038-32.782 14.156-20.304 32.746-36.454 49.816-54.028 6.206-6.386 12.6-12.586 19.304-19.268-1.44-1.67-2.52-3.11-3.772-4.364-19.584-19.592-39.276-39.082-58.724-58.81-3.442-3.492-5.386-2.844-8.488 0.252-21.326 21.268-42.704 42.488-64.288 63.49-12.37 12.038-23.926 13.198-38.692 3.896-24.242-15.278-49.882-26.82-78.214-32.306-14.84-2.872-22.708-13.528-22.73-28.72-0.028-29.75-0.008-59.494-0.008-89.244 0-2.030 0-4.060 0-6.976-3.168 0-5.552 0-7.934 0-26.028 0-52.064-0.008-78.092 0.008-9.41 0.008-10.116 0.656-10.016 10.016 0.302 27.878 0.612 55.756 1.058 83.642 0.252 16.012-7.322 26.438-22.996 30.298-27.764 6.832-53.812 17.734-78.48 32.112-13.276 7.732-25.452 6.084-36.446-4.796-20.62-20.398-41.264-40.774-61.696-61.358-3.5-3.52-5.494-3.34-8.9 0.116-19.166 19.484-38.578 38.722-57.896 58.060-1.282 1.282-2.426 2.692-3.932 4.37 1.642 1.756 2.96 3.262 4.37 4.68 19.426 19.49 38.866 38.966 58.298 58.45 12.556 12.592 14.054 24.56 4.78 39.542-15.53 25.106-26.884 51.984-34.496 80.488-3.88 14.544-13.81 22.154-28.728 22.176-27.886 0.036-55.778 0.008-83.664 0.014-7.956 0-9.158 1.16-9.166 8.864-0.008 26.402-0.014 52.804 0 79.208 0 7.006 0.972 7.97 8.144 7.978 27.332 0.014 54.662 0 81.994 0.014 16.964 0.008 26.942 8.252 30.232 25.042 5.638 28.786 17.41 55 32.608 79.92 3.276 5.372 5.76 11.75 6.646 17.942 1.18 8.266-2.628 15.43-8.704 21.376-19.54 19.108-38.872 38.434-58.492 57.448-3.55 3.434-3.542 5.35-0.022 8.812 19.476 19.174 38.758 38.542 57.952 58.004 3.248 3.29 5.464 3.362 8.668 0.036 18.698-19.404 37.648-38.57 56.29-58.018 9.18-9.576 22.572-12.55 33.992-5.804 27.512 16.264 57.052 27.468 87.53 36.562 13.73 4.096 21.002 14.192 21.016 28.612 0.036 26.956 0.13 53.92-0.108 80.878-0.044 4.658 1.9 6.848 5.912 6.868 29.88 0.144 59.76 0.080 89.992 0.080 0.1-2.024 0.238-3.83 0.26-5.638 0.374-27.504 0.67-55.008 1.124-82.512 0.274-16.552 7.604-25.768 23.516-30.032 29.376-7.876 57.196-19.368 83.080-35.46 13.096-8.136 25.92-6.53 36.872 4.442 19.706 19.736 39.348 39.528 59.026 59.292 1.432 1.44 2.93 2.808 4.796 4.586 1.54-1.324 2.974-2.404 4.234-3.664 19.476-19.44 38.836-38.996 58.464-58.276 3.6-3.536 3.334-5.516-0.094-8.87-20.196-19.764-40.14-39.788-60.264-59.63-12.232-12.060-14.090-23.904-5.516-38.592 14.782-25.33 25.466-52.28 32.32-80.776 3.5-14.566 13.796-22.594 28.944-22.608 28.072-0.028 56.152-0.008 84.226-0.008 2.030 0 4.060 0 6.71 0 0.136-2.282 0.352-4.248 0.352-6.214 0.022-27.706-0.116-55.404 0.13-83.11 0.072-5.364-1.382-6.956-6.826-6.904zM514.362 653.486c-102.708 0.028-186.386-83.6-186.509-186.401-0.122-103.112 83.52-187.020 186.444-187.020 102.772 0 186.314 83.492 186.494 186.386 0.188 103.090-83.456 187.006-186.43 187.034zM513.764 335.348c-72.964 0.598-131.782 60.098-131.026 132.56 0.756 72.49 60.142 130.744 132.74 130.204 72.684-0.54 131.054-60.092 130.4-133.034-0.64-71.632-60.4-130.32-132.112-129.73z" />
<glyph unicode="&#xe909;" glyph-name="settings" d="M682.667 426.667c0 47.104-19.157 89.856-50.005 120.661s-73.557 50.005-120.661 50.005-89.856-19.157-120.661-50.005-50.005-73.557-50.005-120.661 19.157-89.856 50.005-120.661 73.557-50.005 120.661-50.005 89.856 19.157 120.661 50.005 50.005 73.557 50.005 120.661zM597.333 426.667c0-23.595-9.515-44.843-25.003-60.331s-36.736-25.003-60.331-25.003-44.843 9.515-60.331 25.003-25.003 36.736-25.003 60.331 9.515 44.843 25.003 60.331 36.736 25.003 60.331 25.003 44.843-9.515 60.331-25.003 25.003-36.736 25.003-60.331zM866.773 281.43c1.963 4.48 4.779 8.149 8.192 10.965 4.779 3.925 10.709 6.229 17.195 6.272h3.84c35.328 0 67.413 14.379 90.496 37.504s37.504 55.168 37.504 90.496-14.379 67.413-37.504 90.496-55.168 37.504-90.496 37.504h-6.784c-4.693 0.043-9.173 1.195-13.141 3.243-5.419 2.816-9.813 7.339-12.459 13.312-0.128 1.237-0.171 2.517-0.171 3.797-1.024 2.347-1.707 4.736-2.091 7.168 0.853 14.251 3.285 19.371 7.168 23.339l2.645 2.645c24.96 25.003 37.461 57.856 37.419 90.539s-12.544 65.536-37.589 90.539c-25.003 24.96-57.856 37.461-90.539 37.419s-65.536-12.544-90.453-37.504l-1.963-1.963c-3.541-3.413-7.808-5.803-12.288-7.083-5.973-1.664-12.416-1.365-18.688 1.408-4.309 1.877-7.979 4.693-10.795 8.107-3.925 4.779-6.229 10.709-6.272 17.195v3.84c0 35.328-14.379 67.413-37.504 90.496s-55.168 37.504-90.496 37.504-67.413-14.379-90.496-37.504-37.504-55.168-37.504-90.496v-6.784c-0.043-4.693-1.195-9.173-3.243-13.141-2.816-5.419-7.339-9.813-13.312-12.459-1.237-0.128-2.517-0.171-3.797-0.171-2.347-1.024-4.736-1.707-7.168-2.091-14.293 0.896-19.413 3.328-23.381 7.211l-2.645 2.645c-25.003 24.96-57.813 37.461-90.539 37.461s-65.493-12.544-90.539-37.632c-24.96-25.003-37.461-57.813-37.461-90.539s12.544-65.536 37.504-90.453l2.048-2.005c3.413-3.541 5.803-7.808 7.083-12.288 1.664-5.973 1.365-12.416-1.323-18.517-0.256-0.683-0.555-1.451-0.896-2.219-1.749-4.651-4.608-8.661-8.149-11.733-4.693-4.053-10.667-6.528-16.341-6.656h-3.84c-35.328 0-67.413-14.379-90.496-37.504s-37.504-55.211-37.504-90.539 14.379-67.413 37.504-90.496 55.168-37.504 90.496-37.504h6.784c4.693-0.043 9.173-1.195 13.141-3.243 5.461-2.859 9.941-7.424 12.629-13.696 1.024-2.347 1.707-4.736 2.091-7.168-0.853-14.251-3.285-19.371-7.168-23.339l-2.645-2.645c-24.96-25.003-37.461-57.856-37.419-90.539s12.544-65.536 37.589-90.539c25.003-24.96 57.856-37.461 90.539-37.419s65.536 12.544 90.453 37.504l2.005 2.048c3.541 3.413 7.808 5.803 12.288 7.083 5.973 1.664 12.416 1.365 18.517-1.323 0.683-0.256 1.451-0.555 2.219-0.896 4.651-1.749 8.661-4.608 11.733-8.149 4.053-4.693 6.528-10.667 6.656-16.341v-3.925c0-35.328 14.379-67.413 37.504-90.496s55.168-37.504 90.496-37.504 67.413 14.379 90.496 37.504 37.504 55.168 37.504 90.496v6.784c0.043 4.693 1.195 9.173 3.243 13.141 2.859 5.461 7.424 9.941 13.696 12.629 2.347 1.024 4.736 1.707 7.168 2.091 14.251-0.853 19.371-3.285 23.339-7.168l2.645-2.645c25.003-24.96 57.856-37.461 90.539-37.419s65.536 12.544 90.539 37.589c24.96 25.003 37.461 57.856 37.419 90.539s-12.544 65.536-37.504 90.453l-2.048 2.005c-3.413 3.541-5.803 7.808-7.083 12.288-1.664 5.973-1.365 12.416 1.323 18.517zM784.896 541.782c-0.512 8.576-1.621 12.672-3.243 16.299v-3.413c0-1.835 0.128-3.584 0.341-5.333 0.896-2.56 1.835-5.077 2.901-7.552 0.171-3.84 0.213-3.883 0.213-3.925 10.624-24.789 29.184-43.947 51.541-55.595 15.829-8.235 33.493-12.715 51.669-12.928h7.68c11.776 0 22.4-4.736 30.165-12.501s12.501-18.389 12.501-30.165-4.736-22.4-12.501-30.165-18.389-12.501-30.165-12.501h-3.84c-27.179-0.128-52.053-9.728-71.467-25.728-13.781-11.349-24.789-25.899-32-42.368-10.965-24.832-12.288-51.627-5.419-76.032 5.077-18.048 14.549-34.731 27.819-48.469l3.072-3.115c8.363-8.363 12.544-19.2 12.544-30.165s-4.139-21.845-12.459-30.165c-8.405-8.405-19.243-12.587-30.251-12.587s-21.845 4.139-30.165 12.459l-2.603 2.603c-19.755 19.328-44.373 29.952-69.632 32.085-18.645 1.579-37.632-1.451-55.168-9.045-24.661-10.581-43.819-29.141-55.467-51.456-8.235-15.829-12.715-33.493-12.928-51.669v-7.723c0-11.776-4.736-22.4-12.501-30.165s-18.347-12.459-30.123-12.459-22.4 4.736-30.165 12.501-12.501 18.389-12.501 30.165v3.84c-0.64 28.16-10.88 52.992-27.477 72.192-12.117 13.995-27.563 24.96-45.141 31.744-24.533 10.539-50.901 11.691-74.923 4.949-18.048-5.077-34.731-14.549-48.469-27.819l-3.115-3.072c-8.363-8.363-19.2-12.544-30.165-12.544s-21.845 4.139-30.165 12.459c-8.405 8.405-12.587 19.243-12.587 30.251s4.139 21.845 12.459 30.165l2.603 2.603c19.328 19.755 29.952 44.373 32.085 69.632 1.579 18.645-1.451 37.632-9.045 55.168-10.581 24.661-29.141 43.819-51.456 55.467-15.829 8.235-33.493 12.715-51.669 12.928l-7.68-0.043c-11.776 0-22.4 4.736-30.165 12.501s-12.501 18.389-12.501 30.165 4.736 22.4 12.501 30.165 18.389 12.501 30.165 12.501h3.84c28.16 0.64 52.992 10.88 72.192 27.477 13.995 12.117 24.96 27.563 31.744 45.141 10.539 24.533 11.691 50.901 4.949 74.923-5.077 18.048-14.549 34.731-27.819 48.469l-3.115 3.115c-8.363 8.363-12.544 19.2-12.544 30.165s4.139 21.845 12.459 30.165c8.405 8.405 19.243 12.587 30.251 12.587s21.845-4.139 30.165-12.459l2.603-2.603c19.755-19.328 44.373-29.952 69.632-32.085 15.787-1.365 31.787 0.597 46.976 5.845 4.096 0.512 7.936 1.536 11.349 3.072-1.323-0.043-2.603-0.128-3.797-0.171-8.576-0.512-12.672-1.621-16.299-3.243h3.413c1.835 0 3.584 0.128 5.333 0.341 2.56 0.896 5.077 1.835 7.552 2.901 3.84 0.171 3.883 0.213 3.925 0.213 24.789 10.624 43.947 29.184 55.595 51.541 8.235 15.787 12.715 33.493 12.928 51.627v7.723c0 11.776 4.736 22.4 12.501 30.165s18.389 12.501 30.165 12.501 22.4-4.736 30.165-12.501 12.501-18.389 12.501-30.165v-3.84c0.128-27.179 9.728-52.053 25.728-71.467 11.349-13.781 25.899-24.789 42.496-32.043 24.661-10.88 51.456-12.203 75.861-5.333 18.048 5.077 34.731 14.549 48.469 27.819l3.115 3.072c8.363 8.363 19.2 12.544 30.165 12.544s21.845-4.139 30.165-12.459c8.405-8.405 12.587-19.243 12.587-30.251s-4.139-21.845-12.459-30.165l-2.603-2.603c-19.328-19.755-29.952-44.373-32.085-69.632-1.365-15.787 0.597-31.787 5.845-46.976 0.512-4.053 1.579-7.893 3.072-11.349-0.043 1.365-0.085 2.645-0.171 3.797z" />
<glyph unicode="&#xe90a;" glyph-name="pencil2" d="M828.8 921.6c79.528 0 144-64.47 144-144 0-32.418-10.719-62.332-28.8-86.4l-57.6-57.6-201.6 201.6 57.6 57.6c24.068 18.081 53.98 28.8 86.4 28.8zM108.8 259.2l-57.6-259.2 259.2 57.6 532.8 532.8-201.6 201.6-532.8-532.8zM695.22 594.38l-403.2-403.2-49.64 49.64 403.2 403.2 49.64-49.64z" />
<glyph unicode="&#xe90b;" glyph-name="panel-txt" d="M660.8 723.52c1.28 0 2.88 0.32 5.12 1.28 5.44 2.24 5.76 3.2 5.76 6.080v19.2h53.76v-20.16c0-1.92 0.32-3.2 1.92-3.2 0.96 0 2.56 0.64 5.12 1.6 5.44 2.24 6.4 3.2 6.4 6.4v1.6c-0.64 10.88-1.28 25.6-1.28 43.84v94.4l7.040 4.16c1.28 0.64 1.92 1.28 1.92 2.24s-0.64 1.6-1.92 2.56l-15.68 10.24-8.32-9.6h-45.44l-16.64 12.8c0.64-7.36 0.64-11.2 0.64-24.64v-91.52c0-13.76-0.32-35.2-0.64-49.6v-2.56c0.32-3.52 0.64-5.12 2.24-5.12zM671.68 878.72h53.76v-123.52h-53.76v123.52zM660.8 715.52c-3.84 0-9.92 1.6-9.92 13.12v2.56c0.64 14.4 0.64 35.84 0.64 49.6v91.2c0 13.12-0.32 16.96-0.64 24.32l-1.28 17.6 28.48-21.76h38.72l10.24 12.16 21.44-14.080c1.92-1.28 5.76-4.16 5.76-8.96 0-2.56-0.96-6.4-6.080-9.28l-3.2-1.6v-89.92c0-20.8 0.64-35.2 1.28-43.52v-2.24c0-9.28-6.72-11.84-11.52-13.76-3.52-1.28-5.76-1.92-8-1.92-3.52 0-9.92 2.24-9.92 11.2v11.84h-37.76v-10.88c0-7.68-3.84-10.56-10.56-13.44-2.24-1.28-4.8-2.24-7.68-2.24zM679.68 763.2h37.76v107.52h-37.76v-107.52zM545.92 873.6l22.4 0.64c-5.12-28.16-11.52-57.28-19.2-83.84 17.28-7.68 30.72-15.040 41.6-21.76-12.8-20.48-35.2-38.080-66.24-56.96l1.92-3.52c29.12 13.12 57.28 32.96 72.96 54.72 12.16-8.96 19.84-17.6 25.28-26.24 3.2-5.44 4.8-6.4 8-6.4 1.92 0 5.76 2.56 5.76 8.64 0 8.64-3.2 16.96-33.6 32.32 15.040 26.56 22.4 64.64 26.24 100.48l8.64 4.16c0.96 0.64 1.92 1.28 1.92 1.92s-0.64 0.96-1.6 1.6l-17.6 11.84-7.36-9.92-33.6-1.28c2.24 10.88 4.48 23.040 7.36 36.48l8.96 5.12c0.96 0.64 1.6 1.28 1.6 1.28 0 0.64-0.64 0.96-1.6 1.28l-20.8 10.24c-1.92-16.96-4.48-35.52-7.68-55.040l-29.44-0.96c-7.36-0.32-12.48-0.32-18.56 0.32l8-8.32c3.84 1.92 9.28 3.2 16.64 3.2zM580.48 874.88l37.44 1.28c-2.88-39.68-8.32-71.68-23.36-99.84-9.6 4.8-21.12 9.6-34.24 15.040 6.080 20.48 11.84 43.52 20.16 83.52zM522.88 697.92l-9.6 16.64 6.72 4.16c28.8 17.28 47.36 32.32 59.2 47.68-9.28 5.44-20.16 11.2-33.28 16.96l-6.4 2.88 1.92 6.72c6.080 21.44 12.16 46.080 17.28 73.28l-12.16-0.32c-5.76-0.32-10.56-0.96-13.76-2.56l-5.44-2.56-26.24 27.84 20.8-1.6c5.76-0.32 10.88-0.32 17.92-0.32l22.72 0.64c2.56 16.64 4.8 32.64 6.4 48l1.28 11.2 31.040-15.040c5.44-2.56 6.080-7.040 6.080-8.64 0-4.48-3.52-7.040-5.12-8l-6.4-3.52-2.88-15.040c-0.64-2.88-0.96-5.44-1.6-8l19.2 0.64 9.6 13.12 24-16c1.6-0.96 5.12-3.52 5.12-8.32s-3.52-7.36-4.8-8.32l-6.080-2.88c-4.8-40.32-12.16-69.76-23.040-91.84 22.72-12.8 30.72-22.080 30.72-35.84 0-10.24-7.040-16.64-13.76-16.64-7.68 0-11.2 4.8-14.72 10.24-4.16 7.040-9.6 13.12-16.96 19.2-16-19.2-41.28-37.44-71.040-50.88l-6.72-2.88zM569.92 795.84c8-3.2 14.72-6.080 20.8-8.96 9.6 21.12 15.36 45.76 18.24 80.96l-21.76-0.64c-6.72-31.68-11.84-52.8-17.28-71.36zM626.24 879.040v-0.64l0.64 0.32-0.64 0.32zM707.84 672.96c1.6 0.96 1.92 1.28 1.92 2.24 0 0.64-0.64 1.6-1.92 2.24l-16.64 10.24-7.040-9.28h-85.12l-17.28 11.2c0.64-7.36 0.64-15.36 0.64-24.64v-44.8c0-6.4-0.32-15.040-0.64-20.8-0.32-1.92-0.32-3.2-0.32-4.48 0-2.56 0.64-3.84 1.92-3.84s3.2 0.64 5.76 2.24c5.12 2.56 5.12 3.2 5.12 10.56h94.72v-8.32c0-2.88 0.32-4.16 1.92-4.16 0.96 0 2.56 0.32 5.12 1.6 5.12 2.24 6.4 3.2 6.4 5.76 0 0.64-0.32 1.6-0.32 2.56-0.96 10.88-1.28 16.96-1.28 31.040v36.16l7.040 4.48zM688.64 608.96h-94.72v30.72h94.72v-30.72zM688.64 645.12h-94.72v28.16h94.72v-28.16zM583.040 583.040c-0.96 0-9.92 0.32-9.92 11.84 0 1.6 0 3.2 0.32 5.44 0.32 5.12 0.64 13.76 0.64 19.84v44.8c0 8.96-0.32 16.64-0.64 24l-0.96 16 28.8-18.56h78.72l9.28 12.16 22.72-14.4c5.12-2.24 5.76-7.040 5.76-8.96 0-5.44-4.16-7.68-5.76-8.96l-3.84-2.24v-31.68c0-13.76 0.32-19.84 1.28-30.080 0.32-1.6 0.32-2.56 0.32-3.2 0-8.32-6.4-11.2-11.2-13.12-3.2-1.6-5.76-2.24-8.32-2.24-2.24 0-9.92 0.96-9.92 12.16v0.32h-79.36c-0.96-3.84-3.2-6.72-8.96-9.6-2.24-1.92-5.44-3.52-8.96-3.52zM601.92 616.96h78.72v14.72h-78.72v-14.72zM601.92 653.12h78.72v12.16h-78.72v-12.16zM704.32 670.080c0 0 0.32 0 0 0v0zM707.84 672.96v0zM578.88 530.24c14.4-20.48 34.56-37.12 62.4-42.88 19.84-4.16 53.12-6.080 91.52-6.080 2.24 0 3.2 0.32 4.48 2.56 4.16 7.040 8.32 9.6 21.12 11.84l-0.32 3.84c-23.040-3.2-48.96-4.8-71.68-4.8-14.4 0-27.52 0.64-37.76 1.6v40h80.96c2.24 0 3.52 0.32 3.52 0.96s-0.96 1.6-2.88 3.2l-14.72 13.44-9.92-12.48h-56.96v32.64h102.080c3.2 0 4.48 0.32 4.48 0.96s-0.64 1.28-1.92 2.24l-16.64 14.72-9.92-12.48h-184c-6.080 0-10.24 0.32-18.88 1.28l7.68-7.36c3.84 0.64 7.040 0.96 16 0.96h89.6v-76.16c-20.48 4.48-40 18.56-55.68 37.12 3.52 6.4 6.080 12.8 8.32 18.56 3.2 1.6 8.96 3.52 8.96 4.16s-0.64 1.28-2.56 1.92l-16.64 8c-9.28-34.24-27.52-70.4-58.24-94.080l1.28-2.56c24 12.16 43.84 36.16 56.32 58.88zM519.040 460.16l-8 15.36 5.44 4.16c31.040 23.68 46.72 59.2 54.4 86.4h-23.68c-8.96 0-11.52-0.32-14.4-0.96l-4.16-0.64-27.52 26.56 23.36-2.56c8.32-0.96 12.16-1.28 17.92-1.28h180.16l12.8 16 23.040-20.16c2.88-2.24 4.48-5.12 4.48-8.32s-1.6-8.96-12.48-8.96h-94.080v-16.64h45.12l12.8 16 21.12-19.2c2.88-2.88 5.44-5.44 5.44-9.28 0-2.24-0.96-8.96-11.52-8.96h-72.96v-24.64c8.32-0.64 18.24-0.96 29.76-0.96 24.64 0 49.6 1.6 70.4 4.8l8.64 1.28 1.28-19.84-7.040-1.28c-11.52-1.92-12.8-3.84-15.36-8-2.88-4.48-6.080-6.72-11.2-6.72-40 0-72.96 2.24-93.12 6.4-23.36 4.8-43.52 17.28-60.16 36.8-10.56-16.64-28.48-39.040-53.76-52.16l-6.72-3.2zM591.040 536c11.84-12.8 24.64-22.4 37.76-27.2v57.28h-27.84c2.24-0.96 5.76-3.52 5.76-8.64 0-5.76-4.16-7.36-10.56-10.24v0c-1.6-3.52-3.2-7.36-5.12-11.2zM686.72 432.96c16-8 27.52-20.48 30.4-26.56 2.88-5.76 4.16-7.68 8-7.68 2.88 0 5.76 5.44 5.76 11.2 0 12.8-17.28 18.88-42.56 25.6l-1.6-2.56zM725.12 390.4c-9.28 0-12.48 6.72-15.040 12.16-1.92 4.16-11.52 15.36-26.88 23.040l-8.64 4.16 10.56 14.4 5.12-1.28c21.44-5.76 48.32-13.12 48.32-33.28 0.32-9.28-4.8-19.2-13.44-19.2zM755.2 237.44c-3.2 3.52-7.36 13.12-7.36 38.080 0 4.16 0.32 9.28 0.64 14.72h-3.84l-7.36-42.88c-17.28 3.52-40.64 23.36-53.12 50.24 10.88 10.24 21.76 22.72 34.56 38.080 2.88 3.52 4.8 4.48 10.56 5.44 2.24 0.32 3.2 0.64 3.2 1.28s-0.64 1.28-1.92 2.56l-15.040 11.84c-9.92-17.92-21.76-33.92-35.2-48.32-5.76 16.96-8.32 38.080-9.92 63.36h83.52c1.6 0 2.24 0.32 2.24 0.96s-0.64 1.28-1.6 2.56l-16.32 15.68-9.6-13.76h-58.88c-0.96 19.84-1.6 38.080-0.96 56.64l7.36 5.12c0.96 0.64 1.6 1.28 1.6 1.6 0 0.64-0.64 1.28-1.92 1.92l-19.84 9.92c-0.32-23.68 0.64-48 2.24-75.2h-57.92v40.96c6.4 1.28 11.84 2.56 15.68 3.84 6.080 1.92 9.6 2.56 13.12 2.56 0.96 0 4.8-0.32 5.76-0.32 0.64 0 1.28 0.32 1.28 0.64s-0.32 0.96-0.64 1.6l-9.6 12.16c-12.48-5.44-48-17.28-90.88-27.52l0.64-3.2c17.6 1.92 37.12 5.12 53.12 8v-38.4h-42.24c-5.76 0-12.16 0.32-18.56 0.96l7.040-8.96c4.48 1.6 11.84 2.56 17.28 2.56h36.48v-47.36l-64.32-17.6 12.16-13.12c0.64-0.32 0.96-0.64 1.6-0.64s1.28 0.64 1.92 1.28c3.52 4.16 6.080 5.76 48.64 21.44v-54.080c0-6.4-1.6-9.28-10.88-9.28-6.72 0-17.28 1.28-33.6 4.16l-0.64-3.2c28.48-7.68 32.32-10.88 34.56-19.84 0.32-1.6 0.64-1.92 1.6-1.92 0.64 0 0.96 0 1.92 0.32 17.28 8.64 19.2 13.12 19.2 27.52v60.48l46.72 16.96-1.28 2.56-45.44-12.16v43.52h58.24c1.92-29.44 6.72-56.32 12.8-72.64-17.28-16.96-37.44-31.68-60.8-45.76l1.92-3.52c26.88 12.48 45.44 23.68 63.36 39.68 27.84-55.68 77.44-61.12 79.36-61.12 3.52 0 5.12 0.96 5.12 2.56-1.6 1.6-2.24 3.2-5.76 7.040zM754.24 219.84c-0.64 0-50.24 3.52-81.6 56.64-16-12.8-33.28-23.36-57.6-34.56l-7.040-2.88-2.56 4.8c-2.88-8-8.96-13.12-21.44-19.2l-1.6-0.96-3.84-0.32c-3.52 0-8.32 2.24-9.28 8.64-0.96 4.16-1.6 6.080-28.8 13.44l-7.36 1.92 4.16 18.24 7.36-1.28c20.48-3.52 31.68-4.48 34.88-4.16 0 0.32 0 0.64 0 0.96v42.56c-30.080-11.2-32.64-12.8-34.56-15.040-2.24-2.56-5.12-4.16-8-4.16h-3.2l-3.84 2.88-21.76 23.36 71.36 19.52v33.28h-28.48c-4.8 0-11.2-0.96-14.080-2.24l-5.44-2.24-23.040 28.48 19.2-2.24c6.080-0.64 12.16-0.96 17.92-0.96h34.24v20.8c-15.040-2.56-31.040-5.12-44.48-6.4l-7.68-0.96-2.88 18.24 7.040 1.6c44.8 10.88 78.72 22.4 89.6 27.2l5.44 2.56 15.36-18.88 0.64-4.48c0-4.16-3.2-8.64-9.28-8.64l-5.76 0.32c-2.24 0-4.8-0.32-10.56-1.92-2.56-0.96-6.080-1.92-9.92-2.56v-26.24h41.28c-1.28 21.44-2.24 44.48-1.92 67.2v12.8l31.36-15.36c1.92-1.28 6.4-3.52 6.4-8.96 0-4.8-3.52-7.36-4.8-8.32l-3.84-3.52c-0.32-13.44 0-27.52 0.64-44.48h47.040l12.8 17.92 23.040-22.080c0.96-0.96 3.84-3.84 3.84-8.32s-3.52-8.96-10.24-8.96h-34.56l16-12.48c3.2-2.56 5.12-5.44 5.12-8.64 0-1.92-0.64-8.32-10.56-9.28-3.52-0.32-3.52-0.64-5.12-2.56-11.52-14.080-21.44-25.28-31.040-34.56 9.92-18.24 24.96-32.32 37.12-38.080l7.040 40.64h18.88l-0.32-10.56c-0.32-4.48-0.32-8.64-0.32-12.16 0-25.92 4.8-32 5.44-32.64 3.52-3.84 6.4-7.36 6.4-12.48 0.32-0.64 0-10.24-12.8-10.24zM584.64 235.2c0 0 0 0 0 0s0 0 0 0zM743.68 238.4c0.64 0 1.28-0.32 1.6-0.64-0.32 0.96-0.96 1.92-1.28 3.2l-0.32-2.56zM580.8 244.16c0.64-0.96 1.28-1.6 1.6-2.56 3.52 1.92 5.44 3.52 7.040 5.44-2.56-1.6-5.44-2.56-8.64-2.88zM607.36 314.24v-53.44c21.44 13.12 39.040 26.24 53.76 40-2.56 8.32-5.12 18.88-7.040 30.4l-46.72-16.96zM532.8 298.88c0 0 0 0 0 0s0 0 0 0zM678.080 363.2c1.28-15.68 2.88-28.48 5.12-39.040 9.28 11.2 17.28 23.040 24.64 35.84l1.92 3.2h-31.68zM607.36 363.2v-25.6l41.6 11.2 3.84-7.68c-0.96 7.040-1.92 14.4-2.56 22.080h-42.88zM712.96 37.44c2.24 0.32 3.52 0.32 3.52 0.96s-0.96 1.6-3.2 3.2l-14.4 10.88-8.96-10.88-14.72-0.64v66.88h34.56c2.24 0 3.2 0.32 3.2 0.96s-0.96 1.6-2.88 3.52l-13.44 13.12-8.96-12.16h-102.72c-5.76 0-12.16 0.32-18.56 0.64l7.040-8.64c4.48 1.6 11.84 2.56 17.28 2.56h10.88v-70.72l-20.16-0.96c-3.2-0.32-16 0-18.56 0l7.68-8.64c4.16 2.24 10.24 3.52 16.64 3.52l77.44 3.84c0-4.16-0.32-21.76-0.32-25.6 0-3.52 0.32-4.8 2.24-4.8 0.96 0 2.88 0.32 5.12 1.28 3.84 1.6 4.48 2.56 4.48 5.44 0 3.84-0.64 20.8-0.64 24l37.44 2.24zM664.32 40l-51.2-2.56v22.72h51.2v-20.16zM664.32 64.96h-51.2v19.84h51.2v-19.84zM664.32 89.92h-51.2v17.6h51.2v-17.6zM666.24-3.52c-3.2 0-10.24 1.28-10.24 12.8l0.32 16.96-68.8-3.52c-5.44-0.32-10.56-1.28-13.44-2.56l-5.44-2.88-23.68 26.56h21.44c4.48 0 12.16 0 14.4 0l12.8 0.64v55.36h-2.88c-5.12 0-11.2-0.96-14.4-2.24l-5.44-2.24-22.080 26.88 24.32-0.96c4.16-0.32 8-0.32 11.84-0.32h98.88l11.84 16 20.16-19.2c2.88-2.56 5.44-5.44 5.44-9.28 0-1.6-0.64-8.96-11.2-8.96h-26.56v-50.56h2.88l11.52 14.4 20.48-15.36c2.24-1.6 6.4-4.48 6.4-9.6s-3.52-8.32-10.88-8.96h-0.32l-29.76-1.6c0-1.28 0-2.24 0-3.52 0-5.44 0.32-10.88 0.32-12.8 0-7.68-4.48-10.56-9.28-12.8-3.84-1.6-6.4-2.24-8.64-2.24zM621.12 52.16v-6.4l35.2 1.92v4.48h-35.2zM621.12 72.96h35.2v3.84h-35.2v-3.84zM621.12 97.92h35.2v1.6h-35.2v-1.6zM728.96 204.48l-8.32-10.24h-48.64l-14.72 10.88c0.32-4.8 0.32-12.16 0.32-15.68v-41.28c0-3.2-0.64-17.6-0.64-20.48 0-3.2 0.64-4.16 2.56-4.16 0.96 0 2.56 0.32 4.48 1.28 4.8 1.28 4.8 2.24 4.8 8.96h56.32v-116.16c0-6.4-0.64-8.64-10.56-8.64-5.76 0-14.72 0.64-28.8 2.24l-0.32-3.52c26.24-6.080 30.080-8 32.32-16.32 0.32-1.28 0.64-1.92 1.6-1.92 0.32 0 0.64 0.32 1.6 0.32 14.72 6.4 15.68 9.6 15.68 20.16v175.68l8.32 4.8c1.28 0.64 1.92 0.96 1.92 1.6 0 0.32-0.64 1.28-1.92 2.24l-16 10.24zM725.76 138.56h-56.32v23.040h56.32v-23.040zM725.76 167.040h-56.32v22.080h56.32v-22.080zM720-19.2c-3.52 0-8.32 2.24-9.28 8.32-0.96 3.2-1.28 4.48-26.24 10.24l-6.72 1.6 1.28 18.56 8.32-0.96c16.96-1.92 26.56-2.24 30.4-1.92 0 0.32 0 0.32 0 0.64v108.16h-40.96c-0.96-3.52-3.52-6.72-9.92-8.64-2.56-0.96-4.8-1.6-7.040-1.6-2.56 0-10.56 0.96-10.56 12.16 0 1.28 0 5.76 0.32 10.24 0 4.48 0.32 8.64 0.32 10.24v41.28c0 3.52 0 10.56-0.32 15.36l-0.96 16.96 26.24-19.52h42.24l10.24 12.8 22.080-14.72c4.48-2.88 5.76-6.4 5.76-8.96 0-1.92-0.64-6.72-6.72-9.28l-3.2-1.92v-171.2c0-14.72-3.84-20.16-20.48-27.52l-4.8-0.32zM726.080-6.72c0 0 0-0.32 0 0 0-0.32 0 0 0 0zM722.24 1.28c0.32-0.64 0.96-1.28 1.28-1.92 3.2 1.6 4.48 2.88 5.12 4.8-1.6-1.28-3.84-2.24-6.4-2.88zM677.44 146.56h40.32v7.040h-40.32v-7.040zM677.44 175.040h40.32v6.080h-40.32v-6.080zM741.44 196.8v0 0 0zM556.16 133.44h54.080c0-8.64 0-9.6 1.6-9.6 2.24 0 9.6 2.24 9.6 6.72-0.32 6.72-0.32 10.88-0.32 16v39.040l7.040 4.48c1.6 0.96 2.24 1.6 2.24 2.24s-0.64 1.28-2.24 2.24l-16 9.92-7.36-10.24h-46.4l-15.36 13.12c0.64-8.96 1.28-24.64 1.28-34.56v-124.8c0-13.44-0.32-34.56-0.96-48.64v-2.24c0-3.84 0.64-5.44 2.24-5.44 1.28 0 3.2 0.32 5.44 1.28 5.12 1.6 5.76 2.88 5.76 5.76v2.24c-0.64 10.24-0.64 28.48-0.64 46.080v86.4zM556.16 188.48h54.080v-21.76h-54.080v21.76zM556.16 161.28h54.080v-22.72h-54.080v22.72zM545.6-16.64c-3.2 0-10.24 1.28-10.24 13.44v2.24c0.64 14.4 0.96 35.2 0.96 48.64v124.8c0 9.28-0.64 25.28-1.28 33.92l-1.6 19.52 27.84-24h39.36l9.28 13.12 22.4-13.76c2.24-1.6 6.080-3.84 6.080-8.96s-4.48-8-6.080-8.96l-3.2-2.24v-34.56c0-4.8 0-8.96 0.32-15.68 0-10.88-12.48-15.040-17.6-15.040-6.72 0-8.64 4.16-9.28 9.6h-38.4v-78.4c0-17.6 0-35.52 0.64-45.44v-2.88c0-9.6-7.68-12.16-11.52-13.44-2.56-1.28-5.44-1.92-7.68-1.92zM563.84 146.24h38.080v6.72h-38.080v-6.72zM563.84 174.4h38.080v5.76h-38.080v-5.76zM808-19.2h-336v960h336v-960zM488-3.84h304v929.28h-304v-929.28zM1016-43.2h-1008v1008h1008v-1008zM24-27.2h976v976h-976v-976z" />
<glyph unicode="&#xe90c;" glyph-name="columns" d="M208 900.8v-880h-136v880h136zM264 956.8h-248v-992h248v992zM952 900.8v-880h-136v880h136zM1008 956.8h-248v-992h248v992zM580.16 900.8v-880h-136v880h136zM636.16 956.8h-248v-992h248v992z" />
<glyph unicode="&#xe90d;" glyph-name="image" d="M934.291 822.857c0.038-0.032 0.077-0.072 0.109-0.109v-723.897c-0.032-0.038-0.072-0.077-0.109-0.109h-844.583c-0.038 0.032-0.077 0.072-0.107 0.109v723.899c0.032 0.038 0.072 0.077 0.107 0.107h844.583zM934.4 883.2h-844.8c-33.189 0-60.343-27.154-60.343-60.343v-724.114c0-33.189 27.154-60.343 60.343-60.343h844.8c33.189 0 60.343 27.154 60.343 60.343v724.114c0 33.189-27.154 60.343-60.343 60.343v0zM813.714 672c0-49.99-40.524-90.514-90.514-90.514s-90.514 40.524-90.514 90.514 40.524 90.514 90.514 90.514 90.514-40.524 90.514-90.514zM874.057 159.086h-724.114v120.686l211.2 362.057 241.371-301.714h60.343l211.2 181.029z" />
<glyph unicode="&#xe90e;" glyph-name="blur" d="M615.934 607.948q31.422 0 54.384-22.963t22.963-54.384-22.963-54.384-54.384-22.963-54.384 22.963-22.963 54.384 22.963 54.384 54.384 22.963zM615.934 400.079q31.422 0 54.384-22.963t22.963-54.384-22.963-54.384-54.384-22.963-54.384 22.963-22.963 54.384 22.963 54.384 54.384 22.963zM408.066 168.040q21.754 0 37.465-14.502t15.711-36.257-15.711-36.257-37.465-14.502-36.257 14.502-14.502 36.257 14.502 36.257 36.257 14.502zM408.066 607.948q31.422 0 54.384-22.963t22.963-54.384-22.963-54.384-54.384-22.963-54.384 22.963-22.963 54.384 22.963 54.384 54.384 22.963zM615.934-10.824q24.171 0 24.171-26.588t-24.171-26.588q-26.588 0-26.588 26.588t26.588 26.588zM615.934 168.040q21.754 0 36.257-14.502t14.502-36.257-14.502-36.257-36.257-14.502-37.465 14.502-15.711 36.257 15.711 36.257 37.465 14.502zM976.079 349.321q26.588 0 26.588-26.588 0-24.171-26.588-24.171t-26.588 24.171q0 26.588 26.588 26.588zM821.385 786.812q21.754 0 36.257-14.502t14.502-36.257-14.502-36.257-36.257-14.502-36.257 14.502-14.502 36.257 14.502 36.257 36.257 14.502zM821.385 581.36q21.754 0 36.257-14.502t14.502-36.257-14.502-37.465-36.257-15.711-36.257 15.711-14.502 37.465 14.502 36.257 36.257 14.502zM821.385 168.040q21.754 0 36.257-14.502t14.502-36.257-14.502-36.257-36.257-14.502-36.257 14.502-14.502 36.257 14.502 36.257 36.257 14.502zM821.385 375.908q21.754 0 36.257-15.711t14.502-37.465-14.502-36.257-36.257-14.502-36.257 14.502-14.502 36.257 14.502 37.465 36.257 15.711zM408.066 400.079q31.422 0 54.384-22.963t22.963-54.384-22.963-54.384-54.384-22.963-54.384 22.963-22.963 54.384 22.963 54.384 54.384 22.963zM408.066 685.294q-21.754 0-36.257 14.502t-14.502 36.257 14.502 36.257 36.257 14.502 37.465-14.502 15.711-36.257-15.711-36.257-37.465-14.502zM408.066 864.158q-24.171 0-24.171 26.588t24.171 26.588q26.588 0 26.588-26.588t-26.588-26.588zM408.066-10.824q26.588 0 26.588-26.588t-26.588-26.588q-24.171 0-24.171 26.588t24.171 26.588zM47.921 349.321q26.588 0 26.588-26.588 0-24.171-26.588-24.171t-26.588 24.171q0 26.588 26.588 26.588zM615.934 864.158q-26.588 0-26.588 26.588t26.588 26.588q24.171 0 24.171-26.588t-24.171-26.588zM615.934 685.294q-21.754 0-37.465 14.502t-15.711 36.257 15.711 36.257 37.465 14.502 36.257-14.502 14.502-36.257-14.502-36.257-36.257-14.502zM976.079 504.013q-26.588 0-26.588 26.588 0 24.171 26.588 24.171t26.588-24.171q0-26.588-26.588-26.588zM202.615 786.812q21.754 0 36.257-14.502t14.502-36.257-14.502-36.257-36.257-14.502-36.257 14.502-14.502 36.257 14.502 36.257 36.257 14.502zM47.921 554.772q26.588 0 26.588-24.171 0-26.588-26.588-26.588t-26.588 26.588q0 24.171 26.588 24.171zM202.615 581.36q21.754 0 36.257-14.502t14.502-36.257-14.502-37.465-36.257-15.711-36.257 15.711-14.502 37.465 14.502 36.257 36.257 14.502zM202.615 168.040q21.754 0 36.257-14.502t14.502-36.257-14.502-36.257-36.257-14.502-36.257 14.502-14.502 36.257 14.502 36.257 36.257 14.502zM202.615 375.908q21.754 0 36.257-15.711t14.502-37.465-14.502-36.257-36.257-14.502-36.257 14.502-14.502 36.257 14.502 37.465 36.257 15.711z" />
<glyph unicode="&#xe90f;" glyph-name="panel-no" d="M808-19.2h-336v960h336v-960zM488-3.84h304v929.28h-304v-929.28zM1016-43.2h-1008v1008h1008v-1008zM24-27.2h976v976h-976v-976zM606.72 680.64c26.88 2.88 28.48 6.72 28.48 28.8v126.4c0 14.080-1.28 16.64-14.72 18.24l-12.48 1.6v4.8c17.92 3.52 32.32 9.6 41.28 16.32v-167.36c0-22.080 1.92-25.6 28.8-28.8v-4.48h-71.36v4.48zM694.080 660.16h-103.36v34.88l14.080 1.6c10.88 1.28 14.080 2.24 15.040 2.88-0.96 0-0.96 7.68-0.96 9.92v126.4c0 0.96 0 1.6 0 2.24-0.32 0-0.32 0-0.64 0l-26.24 3.52v32l12.8 2.56c14.72 2.88 27.52 7.68 34.88 13.44l25.6 18.88v-199.040c0-6.4 0.32-10.24 0.64-11.52-0.32 0.96 3.2 0 13.76-1.28l14.080-1.6v-34.88zM692.48 382.4c-3.2-10.24-5.44-20.48-8.96-35.84h-101.12v5.44c16 18.24 32 36.48 45.76 55.36 15.040 19.84 38.72 45.44 38.72 78.4 0 30.080-13.44 45.76-36.16 45.76-21.76 0-33.6-19.84-40-30.72l-4.16 3.84 15.68 24.64c7.68 9.28 20.8 17.6 35.84 17.6 22.72 0 44.8-18.56 44.8-50.56 0-29.12-13.44-49.92-36.48-78.080l-44.8-55.68h59.52c14.4 0 18.56 1.6 26.24 21.76l5.12-1.92zM683.52 330.24h-117.12v27.2l3.84 4.48c15.68 17.92 31.68 36.16 45.12 54.4l6.080 7.68c13.76 17.6 29.44 37.76 29.44 61.44 0 29.76-14.72 29.76-20.16 29.76-11.52 0-19.2-10.88-26.24-22.72l-9.92-17.28-28.8 26.56 22.72 36.16c13.44 16.32 31.68 24.96 49.6 24.96 29.44 0 60.8-23.36 60.8-66.56 0-35.84-18.24-61.12-40.32-88.32l-23.68-29.76h25.92c4.48 0 6.080 0.32 6.72 0.32v0c-0.32 0 1.28 2.24 4.48 10.88l5.44 14.72 35.2-12.16-4.48-14.72c-3.2-9.92-5.12-19.52-8.64-34.56l-2.88-12.48h-13.12zM604.16 200.64c8.32 9.92 21.44 16.64 33.92 16.64 24.32 0 39.36-17.92 39.36-39.68 0-14.72-10.56-24.64-29.12-35.52v-0.64c25.6-5.12 40-26.88 40.32-50.56 0-53.44-52.48-77.76-72.96-77.76-16.96 0.32-29.44 11.84-29.44 18.56 0 3.52 6.4 10.88 9.6 10.88 1.28 0 3.2-0.64 4.8-1.92 6.72-7.36 14.080-12.48 30.72-12.48 20.48 0 40.96 16 40.96 51.2 0 45.12-31.68 48.64-40 48.64-9.6 0-17.6-3.52-21.12-5.44l-1.92 5.44c30.4 11.52 51.84 24.64 51.84 46.72 0 18.24-10.88 29.12-27.52 29.12-19.52 0-30.4-16-35.84-26.88l-4.48 3.2 10.88 20.48zM616-3.2c-24 0.32-45.44 16.96-45.44 34.56 0 11.52 12.48 26.88 25.6 26.88 5.12 0 10.24-1.92 14.72-5.44 5.44-5.44 8.64-9.28 21.12-9.28 12.16 0 24.96 9.28 24.96 35.2 0 41.92-32 31.68-38.4 28.8l-15.68-7.36-13.76 36.48 15.040 5.76c36.8 14.080 41.6 24.32 41.6 32 0 11.52-6.080 13.12-11.52 13.12-10.56 0-17.28-9.6-21.44-17.6l-8.32-17.28-31.36 22.4 18.88 36.16c11.52 13.76 29.12 22.080 46.080 22.080 31.68 0 55.36-24 55.36-55.68 0-13.76-6.080-24.32-14.4-32.96 15.68-12.16 25.6-31.36 25.6-53.76 0.32-61.76-57.6-94.080-88.64-94.080z" />
<glyph unicode="&#xe910;" glyph-name="users" d="M1018.432 117.995c-3.712-19.968-16.64-32.896-32.64-32.896h-2.688c-31.512-0.072-57.043-25.581-57.152-57.078v-0.010c0.488-7.963 2.324-15.374 5.284-22.183l-0.164 0.423c7.68-17.856 1.728-38.592-14.080-49.856l-1.6-1.024-66.304-36.48c-5.433-2.562-11.801-4.057-18.518-4.057-12.66 0-24.080 5.312-32.151 13.829l-0.019 0.020c-8.512 9.216-31.168 28.352-47.040 28.352-15.552 0-38.592-19.136-46.592-27.904-8.147-8.362-19.517-13.548-32.099-13.548-6.151 0-12.012 1.24-17.348 3.482l0.295-0.11-65.536 36.48c-11.361 7.563-18.745 20.316-18.745 34.794 0 5.831 1.198 11.382 3.361 16.421l-0.104-0.271c1.408 3.2 5.056 13.44 5.056 21.568-0.109 31.53-25.676 57.052-57.213 57.088h-2.243c-16.448 0-29.248 12.992-33.088 32.96-3.084 15.626-5.11 33.858-5.622 52.468l-0.010 0.46c0 22.272 5.056 50.048 5.632 52.992 3.84 19.904 16.64 32.896 32.64 32.896h2.752c0 0 0 0 0 0 31.497 0 57.043 25.478 57.152 56.95v0.010c-0.443 8.002-2.283 15.463-5.281 22.301l0.161-0.413c-2.086 4.77-3.3 10.33-3.3 16.172 0 13.891 6.862 26.18 17.381 33.662l0.127 0.086 1.536 0.896 67.968 37.376 1.28 0.512c4.916 1.998 10.619 3.157 16.592 3.157 12.558 0 23.919-5.123 32.108-13.393l0.004-0.004c8.32-8.576 30.528-26.688 45.952-26.688 15.168 0 37.312 17.664 45.568 26.304 8.168 8.071 19.401 13.057 31.798 13.057 6.14 0 11.995-1.223 17.334-3.439l-0.3 0.11 66.752-36.864c17.28-12.032 23.36-33.6 15.488-51.072-2.688-6.357-4.455-13.726-4.919-21.446l-0.009-0.186c0.064-31.488 25.6-56.96 57.088-56.96h2.304c16.448 0 29.248-12.992 33.088-32.96 0.576-3.008 5.632-30.72 5.632-53.056 0-23.424-5.632-52.736-5.568-52.928zM968.704 205.931c-53.761 7.27-94.768 52.86-94.784 108.030v0.002c0.192 11.264 2.176 22.4 5.76 32.96l-47.168 26.24c-5.878-5.393-12.243-10.559-18.91-15.329l-0.61-0.415c-20.608-14.464-40.32-21.76-58.816-21.76-18.816 0-38.72 7.296-59.456 22.144-7.248 5.184-13.618 10.498-19.571 16.241l0.051-0.049-49.408-27.136c2.816-8.192 5.888-20.288 5.888-32.96 0-54.72-40.64-100.928-94.848-108.032-1.809-10.322-2.985-22.383-3.259-34.668l-0.005-0.276c0.32-11.648 1.344-23.232 3.2-34.816 54.336-7.040 94.976-53.312 94.912-108.032 0-12.608-3.2-24.768-5.888-33.024l45.696-25.536c5.938 5.751 12.305 11.164 19.009 16.148l0.511 0.364c20.928 15.296 41.28 23.168 60.288 23.168 19.264 0 39.808-8.064 60.928-23.68 6.912-5.12 13.44-10.816 19.648-16.832l47.808 26.368c-3.452 9.797-5.544 21.099-5.759 32.859l-0.001 0.101c0 54.72 40.512 100.992 94.784 108.096 1.28 8.96 3.264 23.552 3.264 34.944 0 11.328-1.92 25.856-3.264 34.88zM751.616 70.571c-55.654 0.073-100.755 45.151-100.864 100.789v0.011c1.99 54.173 46.387 97.334 100.864 97.334s98.873-43.161 100.859-97.153l0.005-0.181c-0.109-55.649-45.21-100.727-100.857-100.8h-0.007zM751.616 218.219c-26.311-0.012-47.768-20.775-48.893-46.81l-0.003-0.102c0-27.005 21.891-48.896 48.896-48.896s48.896 21.891 48.896 48.896v0c-1.128 26.137-22.585 46.9-48.895 46.912h-0.001zM605.248 475.051l-16.384-12.8c-33.472-29.696-97.28-39.68-139.456-42.88l-5.376 0.064c-11.84 0-23.68-0.576-35.52-1.664h-0.512l0.064-0.064c-190.848-18.048-340.608-177.92-340.608-372.096v-57.088h418.112c11.923-25.458 25.524-47.38 41.327-67.491l-0.559 0.739h-492.608c-0.057 0-0.125-0.001-0.193-0.001-18.454 0-33.427 14.906-33.535 33.334v90.506c0 181.12 109.824 341.632 279.808 409.088l19.264 7.552-16.32 12.8c-61.361 47.536-100.48 121.235-100.48 204.072 0 0.009 0 0.017 0 0.026v-0.002c0.064 143.040 117.44 259.52 261.76 259.52 144.256 0 261.632-116.48 261.76-259.52-0.044-82.854-39.148-156.565-99.895-203.723l-0.585-0.437zM443.968 871.851c-107.072 0-194.176-86.464-194.176-192.704 0-106.368 87.104-192.896 194.176-192.896 107.136 0 194.24 86.464 194.24 192.896 0 106.304-87.040 192.768-194.24 192.768z" />
<glyph unicode="&#xe911;" glyph-name="delete" d="M896 725.334c11.776 0 22.4-4.736 30.165-12.501s12.501-18.389 12.501-30.165v-512c0-11.776-4.736-22.4-12.501-30.165s-18.389-12.501-30.165-12.501h-535.296l-261.333 298.667 261.333 298.667zM896 810.667h-554.667c-12.8 0-24.235-5.632-32.128-14.549l-298.667-341.333c-14.208-16.213-13.909-40.192 0-56.192l298.667-341.333c8.448-9.643 20.224-14.549 32.128-14.592h554.667c35.328 0 67.413 14.379 90.496 37.504s37.504 55.168 37.504 90.496v512c0 35.328-14.379 67.413-37.504 90.496s-55.168 37.504-90.496 37.504zM481.835 524.502l97.835-97.835-97.835-97.835c-16.683-16.683-16.683-43.691 0-60.331s43.691-16.683 60.331 0l97.835 97.835 97.835-97.835c16.683-16.683 43.691-16.683 60.331 0s16.683 43.691 0 60.331l-97.835 97.835 97.835 97.835c16.683 16.683 16.683 43.691 0 60.331s-43.691 16.683-60.331 0l-97.835-97.835-97.835 97.835c-16.683 16.683-43.691 16.683-60.331 0s-16.683-43.691 0-60.331z" />
<glyph unicode="&#xe912;" glyph-name="dot-1" d="M399.36 460.8c0-62.208 50.483-112.64 112.691-112.64s112.589 50.483 112.589 112.64c0 62.208-50.381 112.589-112.589 112.589s-112.691-50.381-112.691-112.589z" />
<glyph unicode="&#xe913;" glyph-name="list1" d="M753.778-25.6v244.622h244.622v-244.622h-244.622zM753.778 338.488v244.622h244.622v-244.622h-244.622zM389.688 702.578v244.622h244.622v-244.622h-244.622zM753.778 947.2h244.622v-244.622h-244.622v244.622zM389.688 338.488v244.622h244.622v-244.622h-244.622zM25.6 338.488v244.622h244.622v-244.622h-244.622zM25.6-25.6v244.622h244.622v-244.622h-244.622zM389.688-25.6v244.622h244.622v-244.622h-244.622zM25.6 702.578v244.622h244.622v-244.622h-244.622z" />
<glyph unicode="&#xe914;" glyph-name="chevron-down" d="M231.219 586.342c22.323 22.835 53.402 24.627 80.691 0l200.090-191.846 200.090 191.846c27.29 24.627 58.419 22.835 80.589 0 22.323-22.784 20.89-61.286 0-82.688-20.787-21.402-240.384-230.502-240.384-230.502-11.11-11.418-25.702-17.152-40.294-17.152s-29.184 5.734-40.397 17.152c0 0-219.494 209.101-240.384 230.502-20.941 21.402-22.323 59.904 0 82.688z" />
<glyph unicode="&#xe915;" glyph-name="info" d="M512-57.6c-279.235 0-505.6 226.365-505.6 505.6s226.365 505.6 505.6 505.6v0c279.235 0 505.6-226.365 505.6-505.6s-226.365-505.6-505.6-505.6v0zM512 18.24c237 0 429.76 192.76 429.76 429.76s-192.76 429.76-429.76 429.76-429.76-192.76-429.76-429.76 192.76-429.76 429.76-429.76zM512 552.659c20.941 0 37.92-16.979 37.92-37.92v0-303.36c0-20.941-16.979-37.92-37.92-37.92s-37.92 16.979-37.92 37.92v0 303.36c0 20.941 16.979 37.92 37.92 37.92v0zM562.56 671.981c0-27.923-22.637-50.56-50.56-50.56s-50.56 22.637-50.56 50.56v0c0 27.923 22.637 50.56 50.56 50.56s50.56-22.637 50.56-50.56v0z" />
<glyph unicode="&#xe916;" glyph-name="prev-step" d="M864.19 753.572v-584.142h70.041v584.142zM645.662 753.572v-584.142h144.985v584.142zM429.235-49.099v218.528h146.386v584.142h-146.386v219.228l-343.902-511.3z" />
<glyph unicode="&#xe917;" glyph-name="logout" d="M595.201 857.599c13.924-0.313 25.092-11.675 25.092-25.645 0-12.466-8.892-22.856-20.68-25.169l-0.161-0.026-4.249-0.359h-384c-13.67 0-23.245-8.089-25.241-20.685l-0.359-4.916v-614.4c0-13.67 8.089-23.245 20.685-25.241l4.916-0.359h384c15.36 0 25.599-10.239 25.599-25.599 0-13.67-8.089-23.245-20.685-25.241l-4.916-0.359h-409.599c-23.757 0-47.565 22.067-50.842 45.721l-0.359 5.477v665.601c0 23.757 22.067 47.565 45.721 50.842l5.477 0.359h409.599zM744.193 642.713l144.844-144.793c1.228-1.228 2.304-2.559 3.226-3.941 6.22-4.681 10.2-12.049 10.2-20.349 0-6.322-2.309-12.105-6.132-16.549l0.027 0.034-2.612-2.713c-0.924-1.316-1.899-2.47-2.968-3.531l-144.794-144.794c-4.661-4.822-11.187-7.815-18.413-7.815-14.138 0-25.599 11.461-25.599 25.599 0 7.225 2.993 13.752 7.809 18.407l105.684 105.735h-450.662c-14.138 0-25.599 11.461-25.599 25.599s11.461 25.599 25.599 25.599v0h450.508l-107.315 107.315c-4.822 4.661-7.815 11.187-7.815 18.413 0 14.138 11.461 25.599 25.599 25.599 7.225 0 13.752-2.993 18.407-7.809l0.008-0.008z" />
<glyph unicode="&#xe918;" glyph-name="help2" d="M509.891-27.176c-64.265 0-126.511 12.539-185.259 37.392-56.724 24.010-107.611 58.322-151.269 101.98-43.662 43.659-77.976 94.545-101.98 151.27-24.856 58.748-37.392 120.992-37.392 185.267 0 64.263 12.536 126.512 37.392 185.256 24.005 56.724 58.318 107.61 101.98 151.268 43.658 43.662 94.545 77.975 151.27 101.978 58.743 24.857 120.994 37.395 185.259 37.395 64.275 0 126.523-12.536 185.266-37.395 56.622-24.003 107.613-58.316 151.27-101.978 43.659-43.659 77.971-94.544 101.98-151.268 24.858-58.635 37.394-120.995 37.394-185.256 0-64.277-12.534-126.52-37.394-185.267-24.009-56.616-58.32-107.611-101.98-151.27s-94.545-77.97-151.27-101.98c-58.744-24.755-120.992-37.392-185.267-37.392v0 0zM509.891 876.191c-235.718 0-427.461-191.742-427.461-427.457 0-235.728 191.743-427.471 427.461-427.471 235.727 0 427.47 191.743 427.47 427.471 0 235.715-191.743 427.457-427.47 427.457v0 0zM408.716 551.399h-71.581c-2.054 68.562 19.754 118.297 65.357 149.39 31.207 24.94 69.562 37.392 115.203 37.392 103.702-8.325 158.789-60.157 164.976-155.614 2.024-43.585-21.809-88.237-71.623-133.84-54.007-39.453-77.848-87.169-71.581-143.166h-68.483c-2.066 39.351 2.061 69.483 12.488 90.187 6.186 18.713 26.965 45.684 62.263 80.977 2.023 2.055 4.162 4.162 6.227 6.183 43.58 37.397 63.291 71.625 59.128 102.714-6.187 60.164-38.427 91.293-96.485 93.436-72.731-2.144-107.984-44.695-105.888-127.659v0 0zM545.696 240.136v-80.864h-77.802v80.864h77.802z" />
<glyph unicode="&#xe919;" glyph-name="font-minus" d="M412.8 64v25.6c12.8 3.2 25.6 6.4 35.2 12.8 6.4 3.2 12.8 9.6 19.2 19.2 3.2 9.6 6.4 22.4 6.4 32 0 12.8 0 28.8-3.2 41.6-3.2 16-6.4 32-12.8 48l-19.2 70.4h-224l-16-54.4c-6.4-19.2-12.8-41.6-16-60.8-3.2-12.8-3.2-25.6-3.2-38.4 0-19.2 3.2-35.2 16-48s28.8-19.2 44.8-19.2v-28.8h-208v25.6c19.2 6.4 35.2 19.2 48 38.4 16 28.8 28.8 57.6 38.4 89.6l201.6 614.4h76.8l163.2-620.8c6.4-22.4 12.8-44.8 19.2-67.2 3.2-12.8 12.8-25.6 22.4-35.2s22.4-16 35.2-19.2v-25.6c0 0-224 0-224 0zM227.2 364.8h201.6l-89.6 358.4c0 0-112-358.4-112-358.4zM617.6 400c-22.4 0-41.6 22.4-41.6 48v0c0 25.6 19.2 48 41.6 48v0h332.8c22.4 0 41.6-22.4 41.6-48v0c0-25.6-19.2-48-41.6-48v0h-332.8z" />
<glyph unicode="&#xe91a;" glyph-name="font-plus" d="M412.8 64v25.6c12.8 3.2 25.6 6.4 35.2 12.8 6.4 3.2 12.8 9.6 19.2 19.2 3.2 9.6 6.4 22.4 6.4 32 0 12.8 0 28.8-3.2 41.6-3.2 16-6.4 32-12.8 48l-19.2 70.4h-224l-16-54.4c-6.4-19.2-12.8-41.6-16-60.8-3.2-12.8-3.2-25.6-3.2-38.4 0-19.2 3.2-35.2 16-48s28.8-19.2 44.8-19.2v-28.8h-208v25.6c19.2 6.4 35.2 19.2 48 38.4 16 28.8 28.8 57.6 38.4 89.6l201.6 614.4h76.8l163.2-620.8c6.4-22.4 12.8-44.8 19.2-67.2 3.2-12.8 12.8-25.6 22.4-35.2s22.4-16 35.2-19.2v-25.6c0 0-224 0-224 0zM227.2 364.8h201.6l-89.6 358.4-112-358.4zM742.4 256v144h-124.8c-22.4 0-41.6 22.4-41.6 48v0c0 25.6 19.2 48 41.6 48v0h124.8v144c0 25.6 19.2 48 41.6 48s41.6-22.4 41.6-48v-144h124.8c22.4 0 41.6-22.4 41.6-48v0c0-25.6-19.2-48-41.6-48v0h-124.8v-144c0-25.6-19.2-48-41.6-48s-41.6 22.4-41.6 48v0z" />
<glyph unicode="&#xe91b;" glyph-name="sys-admin" d="M426.581 576.086c86.997 0 157.952-65.323 168.533-149.419h150.016c-1.408 20.139-4.139 39.893-9.045 58.837l121.216 69.973-85.376 147.883-121.045-69.888c-38.187 37.589-85.76 65.365-138.88 80.085v139.861h-170.752v-139.861c-53.12-14.677-100.736-42.496-138.923-80.043l-121.003 69.845-85.376-147.883 121.131-69.931c-6.613-25.685-10.539-52.395-10.539-80.128s3.883-54.485 10.539-80.128l-121.131-69.973 85.376-147.84 120.96 69.845c38.187-37.589 85.845-65.365 138.965-80.043v-139.861h170.752v301.014c-25.216-14.677-54.144-23.723-85.419-23.723-94.251 0-170.667 76.416-170.667 170.667s76.416 170.709 170.667 170.709zM981.248 170.667c0 15.787-2.816 30.805-6.869 45.312l79.232 45.739-42.624 73.813-78.677-45.397c-21.376 21.76-48.64 37.333-79.061 45.269v91.264h-85.248v-91.264c-30.507-7.851-57.771-23.424-79.189-45.227l-78.549 45.355-42.624-73.813 79.061-45.611c-4.053-14.592-6.912-29.611-6.912-45.44s2.859-30.891 6.912-45.44l-79.061-45.611 42.624-73.813 78.549 45.355c21.419-21.803 48.725-37.376 79.189-45.227v-91.264h85.248v91.307c30.421 7.936 57.685 23.509 79.061 45.269l78.72-45.44 42.624 73.813-79.232 45.739c4.011 14.507 6.827 29.525 6.827 45.312zM810.496 85.419c-47.104 0-85.248 38.187-85.248 85.248s38.187 85.248 85.248 85.248 85.248-38.187 85.248-85.248-38.144-85.248-85.248-85.248z" />
<glyph unicode="&#xe91c;" glyph-name="next-step" d="M74.936 760.627v-599.65h74.301v599.65h-74.301zM223.537 760.627v-599.65h149.039v599.65h-149.039zM949.063 460.8l-353.586 524.477v-224.65h-148.601v-599.65h148.601v-224.65l353.586 524.477z" />
<glyph unicode="&#xe91d;" glyph-name="show-txt" d="M797.257 508.343v-380.343h-95.086v380.343h-190.171v95.086h475.429v-95.086h-190.171zM416.914 698.514v-570.514h-95.086v570.514h-285.257v95.086h713.143v-95.086h-332.8z" />
<glyph unicode="&#xe91e;" glyph-name="pin" d="M563.2 358.4h307.2v51.2l-153.6 51.2v409.6l153.6 51.2v51.2h-716.8v-51.2l153.6-51.2v-409.6l-153.6-51.2v-51.2h307.2v-358.4l51.2-51.2 51.2 51.2v358.4z" />
<glyph unicode="&#xe91f;" glyph-name="spellcheck" d="M922 444.667l60-60-406-406-216 218 60 60 156-158zM274 468.667h176l-88 236zM532 256.667l-50 128h-240l-48-128h-90l218 554h80l218-554h-88z" />
<glyph unicode="&#xe920;" glyph-name="text-box" d="M25.6 947.2h291.84v-291.84h-291.84v291.84zM122.88 849.92v-97.28h97.28v97.28h-97.28zM706.56 947.2h291.84v-291.84h-291.84v291.84zM803.84 849.92v-97.28h97.28v97.28h-97.28zM706.56 266.24h291.84v-291.84h-291.84v291.84zM803.84 168.96v-97.28h97.28v97.28h-97.28zM25.6 266.24h291.84v-291.84h-291.84v291.84zM122.88 168.96v-97.28h97.28v97.28h-97.28zM317.44 849.92h389.12v-97.28h-389.12v97.28zM317.44 168.96h389.12v-97.28h-389.12v97.28zM803.84 655.36h97.28v-389.12h-97.28v389.12zM122.88 655.36h97.28v-389.12h-97.28v389.12zM366.080 606.72h291.84v-97.28h-291.84v97.28zM463.36 509.44h97.28v-194.56h-97.28v194.56z" />
<glyph unicode="&#xe921;" glyph-name="search2" d="M33.835 35.499l60.331-60.331 187.093 187.093-58.752 61.909-188.672-188.672zM602.667 896c-209.067 0-378.667-169.557-378.667-378.667 0-81.877 26.325-157.44 70.485-219.435l71.253-75.093c64.896-52.352 147.072-84.181 236.928-84.181 209.152 0 378.667 169.557 378.667 378.667s-169.515 378.709-378.667 378.709zM602.667 224c-161.749 0-293.333 131.584-293.333 293.333s131.584 293.333 293.333 293.333 293.333-131.584 293.333-293.333-131.584-293.333-293.333-293.333z" />
<glyph unicode="&#xe922;" glyph-name="return-back" d="M923.802 587.046c-57.618 57.738-134.164 89.522-215.234 89.522h-555.586l125.474 125.474c14.88 14.88 14.88 39.046 0 53.928s-39.046 14.88-53.928 0l-190.472-190.472c-14.88-14.88-14.88-39.046 0-53.928l190.472-190.472c7.38-7.38 17.142-11.19 26.904-11.19s19.524 3.69 26.904 11.19c14.88 14.88 14.88 39.046 0 53.928l-125.354 125.354h555.586c126.070 0 228.568-102.498 228.568-228.568s-102.498-228.568-228.568-228.568h-571.418c-21.072 0-38.094-17.024-38.094-38.094s17.024-38.094 38.094-38.094h571.418c81.070 0 157.616 31.786 215.234 89.522s89.522 134.164 89.522 215.234-31.786 157.616-89.522 215.234z" />
<glyph unicode="&#xe923;" glyph-name="help" d="M512-64c-282.77 0-512 229.23-512 512s229.23 512 512 512c282.77 0 512-229.23 512-512v0c0-282.77-229.23-512-512-512v0zM512 9.143c242.374 0 438.857 196.483 438.857 438.857s-196.483 438.857-438.857 438.857c-242.374 0-438.857-196.483-438.857-438.857v0c0-242.374 196.483-438.857 438.857-438.857v0zM520.777 704.731c2.53 0.128 5.494 0.201 8.474 0.201 44.676 0 85.518-16.416 116.823-43.544l-0.223 0.189c29.773-26.885 48.402-65.623 48.402-108.712 0-2.153-0.047-4.295-0.139-6.426l0.010 0.304c0.099-2.050 0.155-4.452 0.155-6.867 0-34.683-11.606-66.655-31.145-92.245l0.27 0.369c-20.992-22.119-42.945-42.681-66.053-61.902l-1.238-1.001c-13.911-11.277-25.227-25.164-33.314-40.977l-0.332-0.715c-8.294-15.010-13.175-32.907-13.175-51.944 0-0.51 0.004-1.019 0.010-1.527l-0.001 0.077v-13.166h-86.309v13.897c-0.058 1.63-0.091 3.546-0.091 5.47 0 25.931 5.971 50.468 16.613 72.31l-0.431-0.98c25.382 38.612 55.686 71.475 90.538 98.802l0.89 0.672 14.629 15.36c13.704 15.837 22.208 36.506 22.673 59.148l0.002 0.097c0.101 1.609 0.159 3.489 0.159 5.382 0 23.22-8.656 44.418-22.917 60.544l0.084-0.097c-16.51 15.3-38.69 24.686-63.062 24.686-3.551 0-7.056-0.199-10.504-0.587l0.423 0.039c-0.171 0.001-0.373 0.002-0.575 0.002-29.795 0-56.18-14.603-72.388-37.043l-0.18-0.262c-13.926-20.56-22.231-45.915-22.231-73.209 0-3.065 0.105-6.105 0.311-9.118l-0.022 0.407h-87.040c-0.276 3.792-0.433 8.215-0.433 12.676 0 49.532 19.384 94.536 50.979 127.841l-0.078-0.082c33.284 32.346 78.769 52.29 128.913 52.29 4.054 0 8.077-0.13 12.065-0.387l-0.544 0.028zM506.149 233.691c1.046 0.071 2.267 0.112 3.498 0.112 15.216 0 28.985-6.195 38.922-16.2l0.003-0.003c10.389-9.882 16.85-23.808 16.85-39.244 0-0.603-0.010-1.204-0.029-1.803l0.002 0.087c0.002-0.155 0.002-0.338 0.002-0.521 0-16.171-6.728-30.771-17.537-41.152l-0.019-0.018c-10.784-9.975-25.263-16.094-41.171-16.094-0.183 0-0.366 0.001-0.549 0.002h0.028c-0.276-0.005-0.601-0.007-0.927-0.007-15.91 0-30.317 6.43-40.767 16.832l0.002-0.002c-10.818 10.167-17.556 24.567-17.556 40.541 0 0.147 0.001 0.294 0.002 0.441v-0.023c-0.025 0.597-0.039 1.298-0.039 2.002 0 15.49 6.782 29.395 17.538 38.91l0.055 0.048c9.937 9.984 23.69 16.163 38.886 16.163 0.987 0 1.968-0.026 2.942-0.078l-0.136 0.006z" />
<glyph unicode="&#xe924;" glyph-name="edit" d="M305.668 383.247h413.984c5.999 0 10.894-4.876 10.894-10.898v-43.574c0-6.025-4.894-10.898-10.894-10.898h-413.984c-6.021 0-10.896 4.874-10.896 10.898v43.574c0 6.023 4.874 10.898 10.896 10.898zM305.668 230.725h413.984c5.999 0 10.894-4.872 10.894-10.894v-43.578c0-6.023-4.894-10.896-10.894-10.896h-413.984c-6.021 0-10.896 4.874-10.896 10.896v43.578c0 6.023 4.874 10.894 10.896 10.894zM861.273 143.571c0-41.408-0.084-58.015 0-87.157-30.542 0.002-41.49 0-87.151 0h-522.927c-53.854 0-87.155 0-87.155 0 0 12.682 0 42.451 0 87.157v610.080c0 38.11 0 68.452 0 87.153 15.898-0.035 37.862 0 87.155 0h435.776l65.36 87.155h-588.288c-48.13 0-87.153-39.023-87.153-87.155v-784.39c0-48.128 39.023-87.153 87.153-87.153h697.231c48.133 0 87.159 39.025 87.159 87.153v631.869l-87.159-65.364v-479.349zM824.869 886.509c6.107 7.532 15.894 19.705 21.512 25.875 14.175 15.575 35.195 13.045 47.347 8.852 13.037-4.489 32.978-20.684 42.874-37.707 6.021-10.384 11.83-27.831 0.293-43.409-11.485-15.573-19.871-25.957-19.871-25.957l-92.155 72.345zM796.548 849.148c0 0-159.414-211.184-170.863-227.078-6.552-9.108-9.553-15.999-12.254-24.83-3.534-11.493-12.895-66.685-13.28-83.538-0.337-15.915 4.918-21.51 20.215-17.511 14.937 3.893 64.898 27.915 80.473 38.365 7.471 5 14.856 12.364 19.747 18.62 7.706 9.85 168.077 223.609 168.077 223.609l-92.113 72.364z" />
<glyph unicode="&#xe925;" glyph-name="zoom-in2" d="M33.835 35.499l60.331-60.331 187.093 187.093-58.752 61.909-188.672-188.672zM602.667 896c-209.109 0-378.667-169.557-378.667-378.667 0-81.877 26.325-157.44 70.485-219.435l71.253-75.093c64.896-52.352 147.029-84.181 236.928-84.181 209.109 0 378.667 169.557 378.667 378.667s-169.557 378.709-378.667 378.709zM602.667 224c-161.749 0-293.333 131.584-293.333 293.333s131.584 293.333 293.333 293.333 293.333-131.584 293.333-293.333-131.584-293.333-293.333-293.333zM640.939 640h-85.333v-85.333h-85.333v-85.333h85.333v-85.333h85.333v85.333h85.333v85.333h-85.333v85.333z" />
<glyph unicode="&#xe926;" glyph-name="zoom-out2" d="M33.835 35.499l60.331-60.331 187.093 187.093-58.752 61.909-188.672-188.672zM602.667 896c-209.109 0-378.667-169.557-378.667-378.667 0-81.877 26.325-157.44 70.485-219.435l71.253-75.093c64.896-52.352 147.029-84.181 236.928-84.181 209.109 0 378.667 169.557 378.667 378.667s-169.557 378.709-378.667 378.709zM602.667 224c-161.749 0-293.333 131.584-293.333 293.333s131.584 293.333 293.333 293.333 293.333-131.584 293.333-293.333-131.584-293.333-293.333-293.333zM469.248 554.582h256v-85.333h-256z" />
<glyph unicode="&#xe927;" glyph-name="pencil" d="M961.624 57.314h-874.424c-15.043 0-27.292-12.249-27.292-27.292s12.249-27.292 27.292-27.292h874.424c15.043 0 27.292 12.249 27.292 27.292s-12.249 27.292-27.292 27.292zM149.197 146.712c3.223 0 6.447 0.537 9.563 1.612l211.783 80.050c7.307 2.794 13.861 7.092 19.448 12.572l495.127 495.127c21.382 21.382 21.382 55.981 0 77.256l-96.49 96.49c-21.382 21.382-55.981 21.382-77.256 0l-495.234-494.805c-5.48-5.48-9.778-12.142-12.572-19.448l-79.835-211.783c-5.265-14.183 1.934-29.871 16.010-35.136 3.116-1.182 6.34-1.719 9.67-1.719l-0.215-0.215zM653.35 775.184l96.704-96.704-349.211-349.211-96.704 96.704 349.211 349.211zM750.056 871.888l96.704-96.704-57.915-57.915-97.027 96.167 58.238 58.452zM254.929 376.224l13.109 13.109 96.704-96.704-13.109-13.109-155.157-58.238 58.452 154.942z" />
<glyph unicode="&#xe928;" glyph-name="txt" d="M803.2 334.4h-515.2c-16 0-28.8-12.8-28.8-28.8s12.8-28.8 28.8-28.8h515.2c16 0 28.8 12.8 28.8 28.8-1.6 16-12.8 28.8-28.8 28.8zM803.2 180.8h-515.2c-16 0-28.8-12.8-28.8-28.8s12.8-28.8 28.8-28.8h515.2c16 0 28.8 12.8 28.8 28.8s-12.8 28.8-28.8 28.8zM923.2 673.6l-244.8 244.8h-443.2c-41.6 0-73.6-33.6-73.6-73.6v-120h-65.6c-32 0-56-25.6-56-56v-163.2c0-32 25.6-56 56-56h65.6v-398.4c0-41.6 33.6-73.6 73.6-73.6h620.8c41.6 0 73.6 33.6 73.6 73.6v614.4c0 1.6-6.4 8-6.4 8zM120 636.8v33.6h128v-33.6h-43.2v-131.2h-41.6v131.2h-43.2zM856 32h-620.8c-9.6 0-19.2 8-19.2 19.2v398.4h334.4c32 0 56 25.6 56 56v163.2c0 32-25.6 56-56 56h-334.4v120c0 9.6 8 19.2 19.2 19.2h403.2v-163.2c0-41.6 33.6-73.6 73.6-73.6h163.2v-576c0-9.6-9.6-19.2-19.2-19.2zM256 668.8h43.2l12.8-30.4c3.2-8 8-16 12.8-27.2h1.6c3.2 11.2 8 19.2 11.2 27.2l12.8 30.4h41.6l-41.6-81.6 44.8-83.2h-43.2l-16 32c-4.8 8-8 17.6-12.8 27.2h-1.6c-4.8-9.6-8-19.2-11.2-27.2l-14.4-32h-41.6l44.8 84.8c-1.6 0-43.2 80-43.2 80zM396.8 636.8v33.6h128v-33.6h-43.2v-131.2h-40v131.2h-44.8z" />
<glyph unicode="&#xe929;" glyph-name="txt-border" d="M94.546 480.585c0-8.145 6.108-14.254 14.254-14.254s14.254 6.109 14.254 14.254v28.51c0 8.146-6.108 14.255-14.254 14.255s-14.254-6.11-14.254-14.254v-28.511zM94.546 572.222c0-8.146 6.108-14.255 14.254-14.255s14.254 6.11 14.254 14.254v28.51c0 8.146-6.108 14.255-14.254 14.255s-14.254-6.109-14.254-14.254v-28.51zM94.546 388.951c0-8.145 6.108-14.254 14.254-14.254s14.254 6.109 14.254 14.254v28.51c0 8.145-6.108 14.254-14.254 14.254s-14.254-6.109-14.254-14.254v-28.51zM108.799 651.638c8.146 0 14.254 6.11 14.254 14.255v28.51c0 8.146-6.108 14.254-14.254 14.254s-14.254-6.108-14.254-14.254v-28.51c0-8.145 4.072-14.254 14.254-14.254zM94.546 297.315c0-8.146 6.108-14.255 14.254-14.255s14.254 6.11 14.254 14.254v28.511c0 8.145-6.108 14.254-14.254 14.254s-14.254-6.109-14.254-14.254v-28.51zM94.546 203.644c0-8.145 6.108-14.254 14.254-14.254s14.254 6.109 14.254 14.254v28.511c0 8.146-6.108 14.255-14.254 14.255s-14.254-6.11-14.254-14.254v-28.511zM900.936 480.586c0-8.146 6.108-14.256 14.254-14.256s14.254 6.11 14.254 14.255v28.51c0 8.146-6.108 14.255-14.254 14.255s-14.254-6.11-14.254-14.254v-28.511zM900.936 572.222c0-8.146 6.108-14.255 14.254-14.255s14.254 6.11 14.254 14.254v28.51c0 8.146-6.108 14.255-14.254 14.255s-14.254-6.109-14.254-14.254v-28.51zM900.936 388.951c0-8.145 6.108-14.254 14.254-14.254s14.254 6.109 14.254 14.254v28.51c0 8.145-6.108 14.254-14.254 14.254s-14.254-6.109-14.254-14.254v-28.51zM915.19 651.638c8.146 0 14.254 6.11 14.254 14.255v28.51c0 8.146-6.108 14.254-14.254 14.254s-14.254-6.108-14.254-14.254v-28.51c0-8.145 6.108-14.254 14.254-14.254zM900.936 297.315c0-8.146 6.108-14.255 14.254-14.255s14.254 6.11 14.254 14.254v28.511c0 8.145-6.108 14.254-14.254 14.254s-14.254-6.109-14.254-14.254v-28.51zM900.936 203.644c0-8.145 6.108-14.254 14.254-14.254s14.254 6.109 14.254 14.254v28.511c0 8.146-6.108 14.255-14.254 14.255s-14.254-6.11-14.254-14.254v-28.511zM479.414 59.064h-28.51c-8.146 0-14.255-6.11-14.255-14.255s6.11-14.254 14.254-14.254h28.511c8.145 0 14.254 6.108 14.254 14.254s-6.109 14.254-14.254 14.254zM387.777 59.064h-28.509c-8.146 0-14.255-6.11-14.255-14.255s6.109-14.254 14.254-14.254h28.51c8.146 0 14.255 6.108 14.255 14.254s-6.11 14.254-14.254 14.254zM573.085 59.064h-28.51c-8.145 0-14.254-6.11-14.254-14.255s6.109-14.254 14.254-14.254h28.51c8.146 0 14.255 6.108 14.255 14.254s-8.145 14.254-14.254 14.254zM294.106 59.064h-28.509c-8.146 0-14.254-6.11-14.254-14.255s6.108-14.254 14.254-14.254h28.51c8.145 0 14.254 6.108 14.254 14.254s-6.109 14.254-14.254 14.254zM202.471 69.245h-42.762v12.218c0 8.145-6.11 16.29-16.29 16.29h-22.4v46.836c0 8.146-6.11 16.291-14.255 16.291s-14.255-6.11-14.255-16.291v-46.836h-12.217c-8.144 0.001-16.29-6.11-16.29-16.29v-65.162c0-8.144 6.11-16.29 16.29-16.29h65.162c8.145 0 16.29 6.11 16.29 16.29v14.256h42.762c8.145 2.037 16.29 10.182 16.29 16.29-2.037 10.183-18.327 22.4-18.327 22.4zM664.719 59.064h-28.509c-8.146 0-14.255-6.11-14.255-14.255s6.11-14.254 14.254-14.254h28.51c8.146 0 14.255 6.108 14.255 14.254s-6.109 14.254-14.254 14.254zM756.356 59.064h-28.51c-8.146 0-14.255-6.11-14.255-14.255s6.11-14.254 14.254-14.254h28.511c8.145 0 14.254 6.108 14.254 14.254s-6.109 14.254-14.254 14.254zM450.905 838.981h28.51c8.145 0 14.254 6.11 14.254 14.255s-6.109 14.255-14.254 14.255h-28.51c-8.146 0-14.255-6.11-14.255-14.254 0-6.111 6.11-14.256 14.254-14.256zM359.269 838.981h28.509c8.146 0 14.255 6.11 14.255 14.255s-6.11 14.255-14.254 14.255h-28.51c-8.146 0-14.255-6.11-14.255-14.254 0-6.111 6.109-14.256 14.254-14.256zM542.541 838.981h30.546c8.144 0 14.254 6.11 14.254 14.255s-6.11 14.255-14.254 14.255h-28.511c-8.145 0-14.254-6.11-14.254-14.254-2.037-6.111 6.109-14.256 12.217-14.256zM265.598 838.981h28.51c8.145 0 14.254 6.11 14.254 14.255s-6.109 14.255-14.254 14.255h-28.51c-8.146 0-14.254-6.11-14.254-16.29 0-6.11 6.108-12.218 14.254-12.218zM202.471 867.49h-42.762v12.218c0 10.182-8.146 16.29-16.29 16.29h-63.127c-8.144 0-16.29-6.11-16.29-16.29v-65.162c0-8.145 6.11-16.29 16.29-16.29h14.256v-42.762c2.037-8.145 10.182-16.29 16.29-16.29 8.146 0 20.363 16.29 20.363 16.29v44.799h14.254c8.146 0 16.292 6.11 16.292 16.29v22.4h42.762c8.145 0 14.254 6.11 14.254 14.255-2.037 8.146-8.144 14.255-16.289 14.255zM636.213 838.981h28.509c8.146 0 14.255 6.11 14.255 14.255s-6.109 14.255-14.254 14.255h-28.51c-8.146 0-14.255-6.11-14.255-14.254 0-6.111 6.11-14.256 14.254-14.256zM727.847 838.981h28.51c8.145 0 14.254 6.11 14.254 14.255s-6.109 14.255-14.254 14.255h-28.511c-8.146 0-14.255-6.11-14.255-14.254 0-8.146 6.11-14.256 14.254-14.256zM943.697 896h-65.161c-8.145 0-16.29-6.11-16.29-16.29v-14.256h-42.762c-8.145-2.036-16.291-10.181-16.291-16.289 0-8.146 16.29-20.363 16.29-20.363h42.762v-14.254c0-8.146 6.11-16.292 16.29-16.292h22.4v-46.835c0-8.146 6.11-16.291 14.255-16.291s14.254 6.11 14.254 16.291v48.871h14.256c8.145 0 16.29 6.11 16.29 16.29v63.127c-2.037 10.182-8.146 16.29-16.29 16.29zM943.697 97.756h-14.254v42.762c-2.037 8.145-10.182 16.29-16.29 16.29-8.146 0-20.363-16.29-20.363-16.29v-42.762h-14.254c-8.146 0-16.292-6.11-16.292-16.29v-22.4h-42.762c-8.145 0-14.254-6.11-14.254-14.255s6.109-14.254 14.254-14.254h42.762v-14.256c0-8.145 6.11-16.29 16.29-16.29h65.162c8.145 0 16.29 6.11 16.29 16.29v65.162c-2.037 10.182-8.146 16.29-16.29 16.29zM748.212 643.493c0 10.183 0 18.328 2.037 26.473 0 8.145 2.037 14.254 2.037 22.4 0 10.182-6.11 18.327-16.29 20.363-6.11 2.037-16.29 2.037-26.473 2.037h-393.012c-10.183 0-18.328-2.037-26.473-4.073-16.29-4.072-18.327-16.29-18.327-22.4 2.037-18.327 4.072-36.654 4.072-54.981s-2.037-36.655-4.072-54.982c0-4.072 0-8.145 8.145-14.254 4.072-2.037 8.145-4.073 12.218-4.073s8.145 0 12.217 2.037c6.11 2.037 10.183 8.146 12.218 14.255 4.072 18.328 8.145 34.618 12.217 46.836 4.073 10.183 10.183 18.328 16.291 24.437s14.254 10.182 24.437 12.217 24.437 4.073 42.762 4.073c24.437 0 36.654-4.073 40.727-6.11 6.11-4.072 8.146-16.29 8.146-24.437v-325.814c0-16.29 0-26.472-2.037-36.654-2.037-6.111-4.073-12.218-8.146-16.291s-10.182-6.11-16.289-8.145c-8.146-2.037-20.363-4.073-34.618-6.11-6.11 0-10.182-4.072-14.254-10.182-2.037-4.073-4.073-8.146-4.073-14.255 0-4.073 2.037-10.182 4.072-14.255 4.073-6.11 8.146-8.146 16.29-8.146 16.29 0 34.618 0 54.982 2.037 38.69 4.073 73.308 4.073 107.926 0 18.328-2.037 36.655-2.037 57.017-2.037 6.11 0 12.217 2.037 16.29 8.145 2.037 4.073 4.072 8.146 4.072 14.254 0 4.073-2.037 10.183-4.072 14.256-4.073 10.182-8.146 14.254-16.29 14.254-14.255 2.037-26.473 4.073-36.655 6.111-8.146 2.037-12.218 4.072-16.29 8.145s-6.11 8.145-6.11 14.254c-2.037 8.146-2.037 20.363-2.037 36.655v325.815c0 14.255 2.037 22.4 8.145 24.437s18.327 6.11 42.762 6.11c14.255 0 28.51-2.037 38.691-4.072s18.327-6.11 24.437-12.218c6.11-6.11 12.217-14.254 16.29-24.437 4.073-12.218 8.146-26.473 10.182-46.836 2.037-6.109 6.11-12.217 12.218-14.254 4.073-2.037 8.146-2.037 12.218-2.037s8.145 2.037 12.217 4.073c6.11 4.072 8.146 10.182 8.146 14.254 0 10.183-2.037 20.363-2.037 30.546 4.073 12.217 4.073 22.4 4.073 32.582z" />
<glyph unicode="&#xe92a;" glyph-name="check" d="M0 409.6l102.4 102.4 256-256 563.2 563.2 102.4-102.4-665.6-665.6z" />
<glyph unicode="&#xe92b;" glyph-name="txt-simple" d="M96.704 896h826.175v-277.503h-36.416s-69.888 169.792-151.935 185.472c-25.994 5.481-55.865 8.619-86.467 8.619-19.832 0-39.359-1.318-58.493-3.871l2.239 0.245v-709.121s22.911-47.745 60.671-51.329h85.631v-48.512h-455.936v49.919h71.36s54.208 17.152 54.208 57.087 4.289 696.96 4.289 696.96c-20.573 2.976-44.329 4.677-68.481 4.677s-47.907-1.701-71.153-4.987l2.672 0.31c-75.985-29.504-131.176-97.031-142.583-178.591l-0.135-1.183h-36.351v271.808h0.705z" />
<glyph unicode="&#xe92c;" glyph-name="check-outline2" d="M150.016 98.816c-96.436 93.233-156.308 223.762-156.308 368.276 0 282.769 229.23 512 512 512 144.514 0 275.043-59.872 368.137-156.164l0.138-0.144c88.925-91.979 143.724-217.436 143.724-355.691 0-282.769-229.229-512-512-512-138.256 0-263.713 54.799-355.836 143.863l0.144-0.138zM801.791 171.009c74.164 74.164 120.036 176.621 120.036 289.791 0 226.342-183.486 409.828-409.828 409.828-113.17 0-215.628-45.872-289.791-120.036v0c-74.164-74.164-120.036-176.621-120.036-289.791 0-226.342 183.486-409.828 409.828-409.828 113.17 0 215.628 45.872 289.791 120.036v0zM343.040 497.152l117.76-118.272 220.16 220.16 71.68-72.704-291.84-290.816-189.44 189.44 71.68 72.704z" />
<glyph unicode="&#xe92d;" glyph-name="cmp-txt" d="M621.116 745.684c-70.625-14.125-79.453-27.897-124.653-127.831-39.903-90.4-120.769-297.331-194.925-515.563h-20.481c-48.731 174.444-106.644 350.3-159.259 513.797-34.606 99.934-39.55 115.472-119.356 129.597v21.541h233.769v-21.894c-46.259-10.594-65.681-16.95-65.681-46.613 0-15.538 5.297-35.666 15.538-67.094 26.838-85.809 80.866-272.613 124.653-401.856 52.616 133.834 153.963 407.859 153.963 459.416 0 35.666-21.894 46.613-70.625 56.147v21.894h227.059v-21.541zM660.666 331.469c24.366-99.581 82.278-194.572 160.319-194.572 54.028 0 102.759 37.431 102.759 122.888 0 82.631-43.788 122.888-106.644 154.316-80.866 37.431-152.903 88.634-152.903 186.803 0 96.403 72.038 185.391 183.625 183.625 46.259 0 76.981-12.359 99.934-25.072 8.828-35.666 20.481-113.706 24.366-157.141l-18.009-9.181c-21.894 78.041-69.213 157.141-134.894 157.141-62.856 0-94.991-52.969-94.991-115.119 0-76.275 62.856-113.706 114.059-138.425 89.694-42.022 152.903-98.169 152.903-199.163 0-124.653-93.578-194.572-192.453-194.572-66.741 0-120.769 27.897-138.425 51.556-8.828 25.072-15.538 120.063-19.422 169.853l19.775 7.063z" />
<glyph unicode="&#xe92e;" glyph-name="prev" d="M688.055 125.16c12.126-12.306 12.126-32.080 0-44.297s-31.717-12.261-43.845 0l-354.282 357.81c-12.126 12.216-12.126 31.989 0 44.297l354.282 357.81c12.126 12.216 31.717 12.216 43.845 0 12.126-12.261 12.126-32.080 0-44.297l-323.107-335.685 323.107-335.64z" />
<glyph unicode="&#xe92f;" glyph-name="more" d="M512.056 583.235c-67.617 0-122.491-54.817-122.491-122.435s54.873-122.435 122.491-122.435c67.617 0 122.379 54.817 122.379 122.435s-54.762 122.435-122.379 122.435zM122.491 583.235c-67.617 0-122.491-54.817-122.491-122.435s54.873-122.435 122.491-122.435c67.617 0 122.379 54.873 122.379 122.435s-54.762 122.435-122.379 122.435zM901.621 583.235c-67.617 0-122.491-54.817-122.491-122.435s54.873-122.435 122.491-122.435c67.617 0 122.379 54.817 122.379 122.435s-54.762 122.435-122.379 122.435z" />
<glyph unicode="&#xe930;" glyph-name="next" d="M659.052 460.8l-323.107 335.73c-12.126 12.216-12.126 31.989 0 44.297 12.126 12.216 31.717 12.216 43.845 0l354.282-357.81c12.126-12.261 12.126-32.080 0-44.297l-354.282-357.81c-12.126-12.261-31.717-12.216-43.845 0-12.126 12.171-12.126 31.989 0 44.297l323.107 335.594z" />
<glyph unicode="&#xe931;" glyph-name="phone" d="M310.511 761.153c3.543-2.707 10.068-8.427 19.82-19.813 11.109-12.962 23.567-29.931 36.083-49.094 25.331-38.822 40.39-70.303 43.885-80.829-0.813-5.787-4.25-11.807-10.125-21.706-9.215-15.506-21.828-36.75-21.828-66.347 0-10.882 0-43.989 88.369-133.807 21.771-22.129 44.209-42.511 63.178-57.399 28.816-22.609 47.89-31.832 65.826-31.832 25.42 0 46.485 11.255 63.388 20.317 11.986 6.411 22.43 11.995 31.394 12.621 8.508-2.381 37.611-16.464 82.949-48.93 18.415-13.181 36.163-27.11 49.963-39.203 10.71-9.386 16.937-15.798 20.39-19.699-2.739-20.261-14.156-41.171-32.262-58.61-19.301-18.586-44.087-30.597-63.144-30.597-44.33 0-100.055 19.268-161.144 55.717-58.934 35.165-120.365 84.68-177.642 143.193-56.262 57.513-104.184 119.146-138.593 178.266-17.221 29.59-30.483 57.7-39.431 83.461-8.752 25.192-13.19 47.664-13.19 66.712 0 7.712 3.251 17.335 9.379 27.834 6.769 11.588 16.773 23.706 28.923 35.043 10.641 10.056 22.554 18.957 35.42 26.395l0.915 0.488c4.996 2.966 10.776 5.613 16.843 7.634l0.637 0.183zM314.436 803.722c-40.186 0-136.618-73.181-136.618-140.178 0-195.853 351.592-568.957 570.591-568.957 60.275 0 136.626 64.932 136.626 140.178 0 25.761-156.715 140.178-192.879 140.178-37.163 0-64.29-32.978-96.431-32.978s-176.821 145.37-176.821 181.444 32.14 53.595 32.14 90.703c0 26.818-96.431 189.653-136.618 189.653v0z" />
<glyph unicode="&#xe932;" glyph-name="return" d="M587.006 0h-485.427c-20.475 0-37.274 16.799-37.274 37.274s16.799 37.274 37.274 37.274h485.252c165.893 0 298.711 132.644 298.711 298.711s-132.644 298.711-298.535 298.711h-395.306l85.571-85.571c14.525-14.525 14.525-38.148 0-52.847-14.525-14.525-38.148-14.525-52.847 0l-149.268 149.268c-0.875 0.875-1.75 1.75-2.45 2.8-0.35 0.35-0.7 0.875-1.050 1.4s-0.875 1.050-1.225 1.575l-1.050 1.575c-0.35 0.525-0.7 1.050-0.875 1.575-0.35 0.525-0.525 1.050-0.875 1.75-0.175 0.525-0.525 1.050-0.7 1.575s-0.35 1.050-0.7 1.75c-0.175 0.525-0.525 1.225-0.7 1.75s-0.35 1.050-0.35 1.75c-0.175 0.7-0.35 1.225-0.525 1.925s-0.175 1.4-0.35 1.925c0 0.525-0.175 1.050-0.175 1.575-0.175 2.45-0.175 4.9 0 7.35 0 0.525 0.175 1.050 0.175 1.575 0.175 0.7 0.175 1.4 0.35 1.925 0.175 0.7 0.35 1.225 0.525 1.925 0.175 0.525 0.35 1.050 0.35 1.75 0.175 0.525 0.35 1.225 0.7 1.75 0.175 0.525 0.35 1.050 0.7 1.75s0.525 1.050 0.7 1.575c0.35 0.525 0.525 1.225 0.875 1.75 0.525 0.35 0.875 0.875 1.050 1.225l1.050 1.575c0.35 0.525 0.7 1.050 1.225 1.575 0.35 0.525 0.7 0.875 1.050 1.4 0.7 0.875 1.575 1.925 2.45 2.8l149.268 149.444c14.525 14.525 38.148 14.525 52.847 0 14.525-14.525 14.525-38.148 0-52.847l-85.745-85.571h395.131c207.19 0 373.257-166.067 373.257-373.257s-165.893-373.432-373.082-373.432z" />
<glyph unicode="&#xe933;" glyph-name="bones" d="M931.157 307.84c-3.413 2.005-6.912 3.84-10.539 5.675l-7.936 5.163-173.952 122.155 50.517 37.675c47.744-20.267 111.147 19.84 138.581 37.077 69.675 43.989 90.496 136.405 46.507 205.995-40.107 63.488-120.491 86.485-187.179 56.661l-0.725 1.28c-37.675 59.648-116.907 77.568-176.597 39.936-39.168-24.747-67.84-95.104-36.565-174.507l-60.587-45.397-69.333 48.683c28.757 80.341-2.005 149.76-41.899 173.312-60.843 35.84-139.52 15.488-175.232-45.312l-0.853-1.237c-67.541 27.605-147.2 2.176-185.344-62.507-41.771-70.912-18.133-162.645 52.821-204.501 27.947-16.427 92.672-54.485 139.733-32.768l59.008-41.344-177.408-132.821-7.765-5.376c-3.499-1.92-6.912-3.84-10.24-6.016-69.717-43.904-90.496-136.405-46.592-205.995 43.989-69.589 136.405-90.496 205.995-46.507 33.323 20.992 56.32 53.675 65.237 91.648l196.779 146.901 193.835-135.68c10.112-37.675 34.133-69.589 68.053-89.6 70.912-41.813 162.731-18.091 204.459 52.821 41.899 70.997 18.133 162.731-52.779 204.587zM590.933 544.598l96.768 71.68-22.741 36.096c-32.085 50.731-16.299 89.344-9.515 94.933 19.84 12.587 46.251 6.571 58.837-13.269l45.568-72.149 54.101 34.176c29.781 18.816 69.419 9.899 88.32-19.925 18.816-29.824 9.813-69.504-20.011-88.32-32.683-20.651-49.152-27.435-57.472-28.843l-19.371 30.677-152.021-110.507-79.445 52.821 16.981 12.629zM396.459 292.352l-155.435-112.981-1.792-21.077c-1.664-20.48-12.331-38.315-29.184-48.896-29.824-18.816-69.504-9.899-88.32 19.925s-9.899 69.419 19.925 88.235c3.627 2.347 7.509 4.267 11.52 5.76l42.667 28.501 190.251 141.013 77.397-51.669-67.029-48.811zM910.507 146.688c-17.92-30.421-57.301-40.576-87.723-22.656-17.152 10.155-28.288 27.563-30.635 48l-2.517 21.077-576.64 392.704-18.475-31.403c-8.363 1.152-25.003 7.509-58.368 27.093-30.379 18.005-40.491 57.259-22.656 87.68 18.005 30.421 57.259 40.576 87.637 22.656l98.56 41.003c11.904 20.352 38.187 27.008 58.411 15.104 6.827-5.333 23.851-43.52-6.571-95.147l-21.717-36.779 502.827-349.141 43.52-27.179c4.096-1.323 8.021-3.243 11.605-5.333 30.464-18.048 40.576-57.301 22.741-87.68z" />
<glyph unicode="&#xe934;" glyph-name="search" d="M710.279 237.466c-1.67-1.274-3.288-2.698-4.857-4.27s-2.944-3.142-4.27-4.857c-61.727-59.519-145.679-96.072-238.218-96.072-94.847 0-180.664 38.369-242.88 100.586s-100.586 148.033-100.586 242.88 38.369 180.664 100.586 242.88 148.033 100.586 242.88 100.586 180.664-38.369 242.88-100.586 100.586-148.033 100.586-242.88c0-92.538-36.554-176.491-96.121-238.266zM988.289 19.756l-180.32 180.32c60.401 75.562 96.562 171.391 96.562 275.656 0 121.93-49.458 232.378-129.338 312.259s-190.329 129.338-312.259 129.338-232.378-49.458-312.259-129.338-129.338-190.329-129.338-312.259 49.458-232.378 129.338-312.259 190.329-129.338 312.259-129.338c104.266 0 200.095 36.161 275.656 96.562l180.32-180.32c19.185-19.185 50.246-19.185 69.382 0s19.185 50.246 0 69.382z" />
<glyph unicode="&#xe935;" glyph-name="done-all" d="M18 366.667l60 60 238-238-60-60zM948 700.667l62-60-512-512-240 238 62 60 178-178zM768 640.667l-270-272-60 60 270 272z" />
<glyph unicode="&#xe936;" glyph-name="redo-block" d="M0 384c-0.32-146.88 63.040-287.040 173.44-384l84.8 96c-82.88 72.96-130.24 177.92-130.24 288 0 212.16 171.84 384 384 384 105.92 0 201.92-42.88 271.36-112.64l-143.36-143.36h384v384l-150.080-150.080c-95.68 96.32-226.24 150.4-361.92 150.080-282.88 0-512-229.12-512-512zM6.057-5.521l960.072 960.072 45.254-45.254-960.072-960.072-45.254 45.254z" />
<glyph unicode="&#xe937;" glyph-name="blocks" d="M988.16 496.64h-952.32v440.32h952v-440.32zM92.16 552.96h840v327.68h-840v-327.68zM981.12-24.64h-952v440h952v-440zM85.12 31.36h840v328h-840v-328z" />
<glyph unicode="&#xe938;" glyph-name="award" d="M639.403 280.576l32-241.152-137.429 82.475c-13.269 7.851-29.995 8.363-43.904 0l-137.429-82.475 32.043 241.109c39.296-15.829 82.304-24.533 127.317-24.533s88.021 8.747 127.403 24.576zM654.165 384.384c-2.475-1.28-4.821-2.773-6.955-4.48-39.253-24.448-85.547-38.571-135.211-38.571-70.699 0-134.656 28.587-181.035 74.965s-74.965 110.336-74.965 181.035 28.587 134.656 74.965 181.035 110.336 74.965 181.035 74.965 134.656-28.587 181.035-74.965 74.965-110.336 74.965-181.035-28.587-134.656-74.965-181.035c-11.861-11.861-24.875-22.571-38.869-31.915zM304.64 326.187l-48.256-363.221c-3.115-23.339 13.312-44.8 36.693-47.915 9.984-1.323 19.669 0.939 27.563 5.717l191.36 114.816 191.403-114.816c20.224-12.117 46.421-5.589 58.539 14.635 5.205 8.661 6.955 18.389 5.717 27.563l-48.213 363.307c11.947 9.173 23.296 19.115 33.92 29.739 61.696 61.696 99.968 147.072 99.968 241.323s-38.272 179.627-99.968 241.365-147.115 99.968-241.365 99.968-179.627-38.272-241.365-99.968-99.968-147.115-99.968-241.365 38.272-179.627 99.968-241.365c10.667-10.667 22.016-20.608 33.963-29.781z" />
<glyph unicode="&#xe939;" glyph-name="tripitaka" d="M277.333 896c-41.216 0-78.635-16.768-105.6-43.733s-43.733-64.384-43.733-105.6v-640c0-41.216 16.768-78.635 43.733-105.6s64.384-43.733 105.6-43.733h576c23.552 0 42.667 19.115 42.667 42.667v853.333c0 23.552-19.115 42.667-42.667 42.667zM810.667 170.667v-128h-533.333c-17.664 0-33.621 7.125-45.269 18.731s-18.731 27.605-18.731 45.269 7.125 33.621 18.731 45.269 27.605 18.731 45.269 18.731zM277.333 810.667h533.333v-554.667h-533.333c-22.912 0-44.587-5.163-64-14.379v505.045c0 17.664 7.125 33.621 18.731 45.269s27.605 18.731 45.269 18.731z" />
<glyph unicode="&#xe93a;" glyph-name="zoom-in" d="M710.279 237.466c-1.67-1.274-3.288-2.698-4.857-4.27s-2.944-3.142-4.27-4.857c-61.727-59.519-145.679-96.072-238.218-96.072-94.847 0-180.664 38.369-242.88 100.586s-100.586 148.033-100.586 242.88 38.369 180.664 100.586 242.88 148.033 100.586 242.88 100.586 180.664-38.369 242.88-100.586 100.586-148.033 100.586-242.88c0-92.538-36.554-176.491-96.121-238.266zM988.289 19.756l-180.32 180.32c60.401 75.562 96.562 171.391 96.562 275.656 0 121.93-49.458 232.378-129.338 312.259s-190.329 129.338-312.259 129.338-232.378-49.458-312.259-129.338-129.338-190.329-129.338-312.259 49.458-232.378 129.338-312.259 190.329-129.338 312.259-129.338c104.266 0 200.095 36.161 275.656 96.562l180.32-180.32c19.185-19.185 50.246-19.185 69.382 0s19.185 50.246 0 69.382zM315.734 426.667h98.134v-98.134c0-27.086 21.983-49.066 49.066-49.066s49.066 21.983 49.066 49.066v98.134h98.134c27.086 0 49.066 21.983 49.066 49.066s-21.983 49.066-49.066 49.066h-98.134v98.134c0 27.086-21.983 49.066-49.066 49.066s-49.066-21.983-49.066-49.066v-98.134h-98.134c-27.086 0-49.066-21.983-49.066-49.066s21.983-49.066 49.066-49.066z" />
<glyph unicode="&#xe93b;" glyph-name="file-text" d="M750.336 640h-110.336v110.336zM883.499 627.499l-256 256c-3.925 3.925-8.619 7.083-13.824 9.259s-10.795 3.243-16.341 3.243h-341.333c-35.328 0-67.413-14.379-90.496-37.504s-37.504-55.168-37.504-90.496v-682.667c0-35.328 14.379-67.413 37.504-90.496s55.168-37.504 90.496-37.504h512c35.328 0 67.413 14.379 90.496 37.504s37.504 55.168 37.504 90.496v512c0 11.776-4.779 22.443-12.501 30.165zM554.667 810.667v-213.333c0-23.552 19.115-42.667 42.667-42.667h213.333v-469.333c0-11.776-4.736-22.4-12.501-30.165s-18.389-12.501-30.165-12.501h-512c-11.776 0-22.4 4.736-30.165 12.501s-12.501 18.389-12.501 30.165v682.667c0 11.776 4.736 22.4 12.501 30.165s18.389 12.501 30.165 12.501zM682.667 426.667h-341.333c-23.552 0-42.667-19.115-42.667-42.667s19.115-42.667 42.667-42.667h341.333c23.552 0 42.667 19.115 42.667 42.667s-19.115 42.667-42.667 42.667zM682.667 256h-341.333c-23.552 0-42.667-19.115-42.667-42.667s19.115-42.667 42.667-42.667h341.333c23.552 0 42.667 19.115 42.667 42.667s-19.115 42.667-42.667 42.667zM426.667 597.334h-85.333c-23.552 0-42.667-19.115-42.667-42.667s19.115-42.667 42.667-42.667h85.333c23.552 0 42.667 19.115 42.667 42.667s-19.115 42.667-42.667 42.667z" />
<glyph unicode="&#xe93c;" glyph-name="zoom-out" d="M710.279 237.466c-1.67-1.274-3.288-2.698-4.857-4.27s-2.944-3.142-4.27-4.857c-61.727-59.519-145.679-96.072-238.218-96.072-94.847 0-180.664 38.369-242.88 100.586s-100.586 148.033-100.586 242.88 38.369 180.664 100.586 242.88 148.033 100.586 242.88 100.586 180.664-38.369 242.88-100.586 100.586-148.033 100.586-242.88c0-92.538-36.554-176.491-96.121-238.266zM988.289 19.756l-180.32 180.32c60.401 75.562 96.562 171.391 96.562 275.656 0 121.93-49.458 232.378-129.338 312.259s-190.329 129.338-312.259 129.338-232.378-49.458-312.259-129.338-129.338-190.329-129.338-312.259 49.458-232.378 129.338-312.259 190.329-129.338 312.259-129.338c104.266 0 200.095 36.161 275.656 96.562l180.32-180.32c19.185-19.185 50.246-19.185 69.382 0s19.185 50.246 0 69.382zM315.734 426.667h294.4c27.086 0 49.066 21.983 49.066 49.066s-21.983 49.066-49.066 49.066h-294.4c-27.086 0-49.066-21.983-49.066-49.066s21.983-49.066 49.066-49.066z" />
<glyph unicode="&#xe93d;" glyph-name="char-order" d="M401.964 687.62l160.033 241.382 60.012-39.787-160.033-241.382-60.012 39.787zM402.151 377.37l160.12 241.324 59.998-39.809-160.12-241.324-59.998 39.809zM402.181 32.735l160.12 241.324 59.998-39.809-160.12-241.324-59.998 39.809zM716.77 684.716l160.033 241.382 60.012-39.787-160.033-241.382-60.012 39.787zM716.684 374.64l160.12 241.324 59.998-39.809-160.12-241.324-59.998 39.809zM716.721 30.009l160.12 241.324 59.998-39.809-160.12-241.324-59.998 39.809zM108.767 684.684l160.033 241.382 60.012-39.787-160.033-241.382-60.012 39.787zM108.681 374.611l160.12 241.324 59.998-39.809-160.12-241.324-59.998 39.809zM108.718 29.98l160.12 241.324 59.998-39.809-160.12-241.324-59.998 39.809z" />
<glyph unicode="&#xe93e;" glyph-name="block" d="M512 84.667q140 0 241 101t101 241q0 48-21 110t-51 100l-480-480q90-72 210-72zM170 426.667q0-48 21-110t51-100l480 480q-90 72-210 72-140 0-241-101t-101-241zM512 852.667q176 0 301-125t125-301-125-301-301-125-301 125-125 301 125 301 301 125z" />
<glyph unicode="&#xe93f;" glyph-name="chars" d="M326.4 646.4h-300.8v300.8h304v-300.8zM70.4 691.2h208v211.2h-208v-211.2zM665.6 646.4h-304v300.8h304v-300.8zM409.6 691.2h208v211.2h-208v-211.2zM998.4 646.4h-304v300.8h304v-300.8zM742.4 691.2h208v211.2h-208v-211.2zM326.4 307.2h-300.8v304h304v-304zM70.4 358.4h208v208h-208v-208zM665.6 307.2h-304v304h304v-304zM409.6 358.4h208v208h-208v-208zM998.4 307.2h-304v304h304v-304zM742.4 358.4h208v208h-208v-208zM326.4-25.6h-300.8v304h304v-304zM70.4 19.2h208v208h-208v-208zM665.6-25.6h-304v304h304v-304zM409.6 19.2h208v208h-208v-208zM998.4-25.6h-304v304h304v-304zM742.4 19.2h208v208h-208v-208z" />
<glyph unicode="&#xe940;" glyph-name="medal" d="M486.106 565.517v0 0c8.151 0.639 16.391 0.965 24.707 0.965 8.214 0 16.354-0.318 24.409-0.942l162.325 401.77 32.047-12.948-159.027-393.603c46.809-9.091 89.877-28.662 126.664-56.171l160.761 397.897 32.153-12.99-165.015-408.425c59.906-56.784 97.269-137.115 97.269-226.174 0-172.084-139.502-311.586-311.586-311.586s-311.586 139.502-311.586 311.586c0 88.947 37.27 169.189 97.046 225.961l-165.101 408.637 32.1 12.969 160.838-398.089c36.758 27.554 79.807 47.173 126.605 56.317l-159.044 393.649 32.1 12.969 162.335-401.793zM510.813-22.069c152.964 0 276.965 124.001 276.965 276.965s-124.001 276.965-276.965 276.965c-152.964 0-276.965-124.001-276.965-276.965s124.001-276.965 276.965-276.965v0 0zM510.813 161.687l-121.172-79.894 51.931 138.483-103.862 69.241h121.172l51.931 138.483 51.931-138.483h121.172l-103.862-69.241 51.931-138.483-121.172 79.894z" />
<glyph unicode="&#xe941;" glyph-name="char-no" d="M859.84 892.48h0.64v-205.44h15.040v221.76h-14.080l-39.68-24.64 3.84-13.12zM899.52 663.040h-63.040v186.56l-24.96-15.36-17.92 60.48 61.12 38.080h44.8zM821.12 359.68v0.64l14.72 16.32c52.48 54.72 82.24 89.92 82.24 133.76 0 26.24-14.72 61.12-58.24 61.12-21.76 0-40-9.28-53.44-22.4l6.080-11.2c8.96 8.32 24.64 19.2 44.48 19.2 35.52 0 45.44-24.96 45.44-50.24 0-38.080-25.6-69.44-83.84-129.92l-19.2-21.12v-10.24h124.48v13.76h-102.72zM947.84 321.92h-172.48v43.52l25.6 27.84c57.28 59.52 77.44 85.44 77.44 113.6 0 26.24-12.48 26.24-21.44 26.24-11.84 0-21.76-7.040-28.16-12.8l-22.4-20.8-29.76 54.080 13.12 12.8c19.52 18.88 44.48 29.12 70.080 29.12 56.32 0 82.24-44.16 82.24-85.12 0-45.44-25.6-81.92-66.56-126.72h72.32v-61.76zM871.68 125.12v0.64c25.28 9.92 38.72 30.080 38.72 52.8 0 24.96-15.040 51.52-54.4 51.52-19.52 0-38.72-8.64-48.64-17.28l6.080-12.16c9.28 7.68 24.32 15.36 40.64 15.36 29.44 0 40.32-19.2 40.32-39.68 0-30.72-29.44-44.8-52.48-44.8h-13.76v-13.44h13.44c30.72 0 61.12-15.040 61.44-52.16 0.32-19.84-10.24-51.2-52.8-51.2-19.84 0-37.44 8.32-45.12 13.76l-6.080-13.12c8.96-7.040 28.16-15.040 49.28-15.040 48.32 0 70.72 32.64 70.72 65.92 0 32.32-21.12 53.44-47.36 58.88zM848.32-23.36c-28.16 0-52.16 10.88-64 19.84l-15.36 11.84 26.56 56.64 23.36-16.96c5.12-3.52 17.6-9.28 31.040-9.28 9.92 0 17.28 2.24 22.080 7.040 5.12 5.44 7.040 13.76 7.040 19.84-0.32 24.64-23.68 28.48-37.44 28.48h-37.44v61.44h37.76c7.36 0 28.48 3.84 28.48 20.8 0 13.12-6.080 15.68-16.32 15.68-9.92 0-19.84-5.44-25.28-9.92l-23.040-19.2-28.16 55.68 14.080 12.16c12.48 10.56 36.8 23.36 64.32 23.36 53.76 0 78.4-39.040 78.4-75.52 0-18.88-6.4-36.16-18.24-49.92 16.64-15.36 26.56-37.12 26.56-62.080 0.32-43.2-29.44-89.92-94.4-89.92zM551.36 766.080v142.72h-12.8l-102.080-145.6v-10.88h99.84v-65.28h14.72v65.28h32v13.76h-31.68zM536.64 855.68v-89.92h-81.6v0.96l65.28 92.16c5.12 8 9.6 15.68 16.32 27.84l0.96-0.32c-0.96-9.92-0.96-20.16-0.96-30.72zM575.36 663.040h-62.72v65.28h-99.84v42.56l113.28 162.24h49.28v-143.040h32v-61.76h-32v-65.28zM500.8 790.080h11.84v16.32l-11.84-16.32zM496.32 356.16c-19.2 0-35.2 7.36-43.2 13.44l-6.080-13.12c8.96-7.040 26.88-14.4 48.32-14.4 38.72 0 70.4 29.76 70.4 74.24 0 29.12-16 49.28-32.64 57.6-11.84 6.72-24.96 9.6-39.040 9.6-9.28 0-14.080-0.64-19.2-1.6l10.24 71.36h78.72v14.4h-90.24l-13.44-100.48c7.36 1.28 17.28 2.24 29.76 2.24 41.6 0 60.48-24 60.8-56.32 0-33.28-24-56.96-54.4-56.96zM495.36 318.080c-28.16 0-51.2 9.92-63.040 19.52l-15.040 11.84 26.56 56.32 23.36-16.64c1.28-0.96 12.8-8.96 29.44-8.96 8.32 0 15.36 2.88 20.8 8.32 6.080 6.080 9.28 14.72 9.28 24.64-0.32 22.4-11.52 32.32-36.8 32.32-8.96 0-17.28-0.64-25.92-1.92l-32-5.12 20.8 153.28h135.36v-62.4h-81.92l-3.2-22.080c15.040-1.28 29.12-5.12 41.6-12.16 21.44-11.2 45.12-37.76 45.12-78.72 0-56-40.64-98.24-94.4-98.24zM516.16 149.12c-25.28 0-44.48-14.72-54.080-31.040h-0.64c4.16 43.52 30.080 84.8 75.2 94.72 8.64 1.92 16.64 2.24 22.72 2.24l-0.32 15.040c-5.44 0-13.12-0.64-20.8-2.56-22.72-4.8-43.52-16-58.56-32.96-19.52-21.44-34.24-56-34.24-100.8 0-60.48 30.4-93.12 68.16-93.12 42.56 0 65.28 38.4 65.28 77.12-0.32 41.28-24.32 71.36-62.72 71.36zM514.24 14.4c-34.24 0-53.44 31.040-53.44 75.52 0 4.8 1.6 9.28 3.52 13.12 9.6 19.2 28.48 32 48 32 28.8 0 50.24-19.84 50.24-58.56 0-37.44-19.84-62.080-48.32-62.080zM513.28-23.36c-45.76 0-92.16 36.16-92.16 117.12 0 46.4 14.4 88 40.64 116.8 17.92 20.16 43.52 34.56 71.36 40.32 10.88 2.56 20.8 2.88 25.6 3.2l24 0.32 0.96-63.040h-24.32c-6.4 0-12.16-0.64-17.6-1.92-12.48-2.88-22.72-8.64-30.72-16.32 1.92 0 3.52 0 5.44 0 50.88 0 86.4-39.040 86.4-95.36-0.32-48.96-31.68-101.12-89.6-101.12zM512.32 111.040c-10.24 0-21.12-7.36-26.56-18.56-0.96-14.4 1.28-54.080 28.48-54.080 17.92 0 24.64 20.48 24.64 38.080-0.32 23.040-8.96 34.56-26.56 34.56zM208.64 894.4l-93.44-207.36h15.040l94.4 209.92v11.84h-122.24v-13.76h106.24zM145.92 663.040h-67.84l93.76 208h-93.44v61.76h170.24v-40.96zM160.64 342.080c34.88 0 65.6 24.96 65.6 62.72 0 25.6-14.72 46.4-44.16 58.56v1.28c28.48 13.76 36.8 34.88 36.8 53.44 0 28.16-20.48 53.12-55.36 53.12-33.92 0-59.52-23.68-59.52-56.96 0-19.2 10.24-38.72 35.52-50.24v-1.28c-27.2-12.48-43.84-33.28-43.84-62.080-0.32-33.6 27.52-58.56 64.96-58.56zM118.72 516.8c0 22.080 15.36 41.28 42.88 41.28 30.080 0 41.6-21.44 41.6-41.28 0-24.32-16.32-39.68-38.4-47.68-28.16 7.68-46.080 21.12-46.080 47.68zM156.8 457.92c33.92-10.24 54.080-24.32 54.080-55.68 0-26.88-19.52-46.72-49.92-46.72-32 0-50.56 22.4-49.28 48.96-0.32 24 15.36 44.48 45.12 53.44zM160.64 318.080c-50.88 0-89.28 35.52-89.28 82.88 0 24.96 9.28 46.72 27.2 63.36-12.16 13.76-18.88 31.040-18.88 49.92 0 46.080 35.84 80.96 83.52 80.96 45.44 0 79.36-33.28 79.36-77.12 0-13.12-3.2-33.92-19.52-52.48 17.6-16 26.88-36.8 26.88-60.8 0.32-48.64-39.040-86.72-89.28-86.72zM157.12 432.64c-9.92-4.48-21.76-12.8-21.76-28.16-0.32-7.68 1.6-13.44 5.76-17.6 4.48-4.8 11.2-7.040 19.52-7.040 16.64 0 25.92 8.32 25.92 22.72 0 11.2-2.24 20.48-29.44 30.080zM161.6 534.080c-16.32 0-18.88-10.88-18.88-17.28v-0.32c0-6.4 0-14.72 20.8-22.080 15.68 8 15.68 18.24 15.68 22.4 0 17.28-12.8 17.28-17.6 17.28zM164.48 230.080c-40.64 0-66.88-37.44-66.88-78.080 0-34.88 20.8-67.2 59.52-67.2 22.4 0 40.96 10.56 54.080 28.8l0.96 0.32c-4.16-32-14.4-54.4-28.16-70.080-12.48-14.4-28.48-23.040-45.76-25.92-9.6-1.6-17.6-2.24-23.68-1.92v-15.040c7.040-0.32 16.96 0.64 28.16 2.88 16.32 3.52 35.52 13.76 48.96 28.8 19.2 20.8 35.84 55.040 35.84 105.28 0 59.84-27.2 92.16-63.040 92.16zM209.6 127.36c-9.28-16.64-27.52-28.8-49.6-28.8-27.52 0-47.040 21.44-47.040 54.080 0 36.48 20.16 63.36 48.96 63.36 34.24 0 50.56-32.32 50.56-79.040-0.32-3.84-1.6-7.040-2.88-9.6zM117.12-23.36c-0.96 0-2.24 0-3.2 0l-23.040 0.96v64.32l26.24-2.24c1.92-0.32 7.040-0.32 17.28 1.6 12.16 1.92 22.72 8.32 31.68 18.24 0.64 0.64 1.28 1.28 1.6 1.92-3.52-0.64-7.040-0.64-10.56-0.64-48.32 0-83.52 38.4-83.52 91.2 0 57.28 40 102.080 90.88 102.080 43.2 0 87.040-36.16 87.040-116.48 0-62.72-23.040-100.8-42.24-121.6-16.32-17.6-39.36-31.040-61.44-35.84-11.84-2.24-22.080-3.52-30.72-3.52zM161.92 192.32c-16.96 0-24.96-20.48-24.96-39.36 0-7.040 1.6-30.080 23.040-30.080 14.4 0 24.32 8.32 28.8 16.32v0c-0.64 14.72-3.2 53.12-26.88 53.12zM188.16 138.24v0z" />
<glyph unicode="&#xe942;" glyph-name="task-lobby" horiz-adv-x="1049" d="M63.027 21.76v878.080c0 4.864 3.917 8.806 8.704 8.806h726.912c4.813 0 8.704-3.942 8.704-8.832v-354.278h63.053v354.33c0 40.115-32.154 72.934-71.757 72.934h-726.835c-39.68 0-71.808-32.666-71.808-72.96v-878.080c0-40.115 32.205-72.96 71.757-72.96h406.963v64.154h-406.963c-4.802 0.043-8.679 3.946-8.679 8.755 0 0.027 0 0.054 0 0.081v-0.004h-0.051zM234.701 358.4c-16.512 0-29.901-11.469-29.901-25.6s13.389-25.6 29.901-25.6h119.398c16.512 0 29.901 11.469 29.901 25.6s-13.389 25.6-29.901 25.6h-119.398zM614.4 537.6c0 14.131-14.438 25.6-32.23 25.6h-370.739c-17.792 0-32.23-11.469-32.23-25.6s14.438-25.6 32.23-25.6h370.739c17.792 0 32.23 11.469 32.23 25.6zM582.144 742.4h-370.688c-17.843 0-32.256-11.469-32.256-25.6s14.413-25.6 32.23-25.6h370.739c17.792 0 32.23 11.469 32.23 25.6s-14.413 25.6-32.23 25.6zM890.829 244.89h-61.312v106.266c0 18.15-13.773 32.845-30.771 32.845-16.973 0-30.746-14.694-30.746-32.845v-139.11c0-18.125 13.773-32.845 30.746-32.845h92.083c16.998 0 30.771 14.694 30.771 32.845 0 18.125-13.773 32.845-30.746 32.845zM793.6 486.4c141.389 0 256-114.611 256-256 0-141.363-114.611-256-256-256s-256 114.637-256 256c0 141.389 114.637 256 256 256zM793.6 39.475c105.42 0.087 190.859 85.509 190.976 190.914v0.011c-0.117 105.416-85.556 190.837-190.968 190.925h-0.008c-105.398-0.117-190.808-85.527-190.925-190.914v-0.011c0.117-105.407 85.541-190.823 190.941-190.925h0.010z" />
<glyph unicode="&#xe943;" glyph-name="task-admin" d="M759.347 695.706v56.32c-0.029 5.181-4.236 9.37-9.421 9.37 0 0 0 0 0 0h-450.918c-5.163-0.029-9.341-4.207-9.37-9.367v-56.323c0 0 0 0 0 0 0-5.185 4.189-9.392 9.367-9.421h450.921c5.203 0 9.421 4.218 9.421 9.421v0zM299.008 592.384c-5.181-0.029-9.37-4.236-9.37-9.421 0 0 0 0 0 0v0-56.32c0 0 0 0 0 0 0-5.185 4.189-9.392 9.367-9.421h216.067c5.181 0.029 9.37 4.236 9.37 9.421 0 0 0 0 0 0v0 56.32c0 0 0 0 0 0 0 5.185-4.189 9.392-9.367 9.421h-0.003zM740.557 456.141c-140.084 0-253.645-113.561-253.645-253.645s113.561-253.645 253.645-253.645c140.084 0 253.645 113.561 253.645 253.645v0c0 140.084-113.561 253.645-253.645 253.645v0zM866.816 76.237c-32.321-32.336-76.98-52.338-126.31-52.338-98.63 0-178.586 79.955-178.586 178.586s79.955 178.586 178.586 178.586c98.626 0 178.579-79.949 178.586-178.573v-0.001c0-0.148 0.001-0.324 0.001-0.499 0-49.146-19.984-93.624-52.269-125.753l-0.007-0.007zM845.107 291.686h-52.019c-0.016 0-0.035 0-0.054 0-3.11 0-5.863-1.523-7.556-3.864l-0.019-0.027-74.547-103.117-27.136 37.478c-1.701 2.368-4.447 3.892-7.549 3.892-0.028 0-0.056 0-0.084 0h-51.81c-5.188-0.020-9.386-4.23-9.386-9.421 0-2.056 0.658-3.958 1.776-5.506l-0.019 0.028 86.682-119.91c1.703-2.454 4.506-4.041 7.68-4.041s5.977 1.587 7.66 4.010l0.020 0.031 134.093 185.549c1.129 1.529 1.807 3.451 1.807 5.531 0 5.175-4.195 9.37-9.37 9.37-0.059 0-0.118-0.001-0.177-0.002h0.009zM468.122 61.44h-272.435v826.829h657.869v-403.968c0.029-5.181 4.236-9.37 9.421-9.37 0 0 0 0 0 0h65.741c5.163 0.029 9.341 4.207 9.37 9.367v450.921c0 0.015 0 0.033 0 0.051 0 20.727-16.803 37.53-37.53 37.53-0.018 0-0.036 0-0.054 0h-751.767c-0.015 0-0.033 0-0.051 0-20.727 0-37.53-16.803-37.53-37.53 0-0.018 0-0.036 0-0.054v0.003-920.678c0-0.015 0-0.033 0-0.051 0-20.727 16.803-37.53 37.53-37.53 0.018 0 0.036 0 0.054 0h319.434c0 0 0 0 0 0 5.185 0 9.392 4.189 9.421 9.367v65.795c-0.058 5.159-4.253 9.319-9.42 9.319-0.018 0-0.036 0-0.055 0h0.003z" />
<glyph unicode="&#xe944;" glyph-name="tool" horiz-adv-x="1029" d="M51.708 770.091v22.918c3.392 2.658 7.012 5.088 10.084 8.066 39.463 38.501 78.835 77.093 118.253 115.685h18.334c50.739-50.464 101.477-100.928 152.17-151.437 39.738-39.601 39.693-39.601 1.834-81.768-0.917-1.054-1.33-2.612-0.321-0.549 42.627-43.955 84.336-87.040 129.849-133.975 32.863 34.101 64.535 69.119 98.636 101.614 18.93 18.058 32.359 34.558 22.963 62.793-3.621 10.909-1.191 24.292 0.321 36.301 16.776 132.14 161.337 218.035 307.136 124.119-25.118-24.934-50.464-49.089-74.344-74.528-7.288-7.745-10.588-19.204-15.722-28.921 3.070-2.704 6.142-5.454 9.212-8.158 46.201 14.437 66.872 62.793 107.848 89.79 11.824-30.708 23.422-60.869 35.018-91.027v-64.168c-0.779-1.283-2.063-2.476-2.337-3.895-19.801-93.043-104.365-164.959-219.775-146.624-5.272 0.825-13.017 0-16.408-3.301-41.754-40.929-82.914-82.457-122.608-122.148 25.714-27.134 49.776-52.48 80.165-84.565 20.075 24.797 39.142 48.264 56.651 69.852 20.718-20.671 37.355-37.171 54.91-54.68-5.041-5.683-10.954-12.376-21.13-23.88 7.701-5.683 16.592-10.726 23.512-17.646 45.239-45.422 91.301-90.065 134.524-137.365 26.4-28.921 29.197-65.405 13.109-100.744-16.271-35.704-44.598-56.88-85.251-59.676-33.092-2.247-59.126 11.091-81.493 34.056-46.797 47.943-93.685 95.84-141.171 144.333-10.542-9.12-17.693-15.309-22.229-19.251-18.563 18.518-35.613 35.475-55.965 55.734 20.305 19.251 41.709 39.555 60.456 57.384-25.804 25.53-51.060 50.464-77.506 76.635-35.522-35.888-72.648-74.297-110.92-111.515-11.091-10.771-13.796-20.855-11.824-35.98 10.176-78.607-17.967-141.124-84.93-183.566-21.359-13.522-47.21-20.030-70.998-29.746h-45.834c-34.834 11.643-69.713 23.283-110.324 36.85 29.517 28.417 54.91 51.518 78.468 76.36 8.066 8.526 11.596 21.404 17.141 32.314-2.98 2.292-5.913 4.584-8.891 6.92-46.017-15.125-66.186-63.985-106.657-89.193-8.25 19.617-16.776 37.493-23.33 56.010-49.41 139.749 59.997 271.201 206.529 248.79 6.187-0.962 15.262-0.87 18.93 2.796 41.297 41.434 81.768 83.694 120.91 124.166-41.389 41.389-83.831 83.784-130.398 130.353-3.85-5.501-7.792-13.201-13.567-19.112-24.934-25.438-35.475-25.346-60.456-0.184-54.176 54.543-108.353 109.178-162.575 163.766zM200.714 56.037c56.88-18.196 103.585-8.066 141.857 30.022 38.592 38.456 51.563 85.482 36.485 138.787-3.575 12.605-6.647 22.321 5.454 34.238 110.828 109.543 220.784 219.959 330.74 330.42 8.434 8.479 15.354 10.129 27.73 7.745 23.559-4.492 48.814-9.304 71.868-5.362 91.027 15.63 133.654 116.098 101.661 181.871-30.892-58.53-82.044-59.631-136.769-51.975 0 27.134-6.417 56.606 1.924 80.99 7.38 21.588 31.213 37.583 49.271 57.705-8.25 2.155-15.171 4.767-22.276 5.774-103.54 14.208-182.88-77.185-154.325-177.837 3.346-11.871 6.691-21.175-4.72-32.497-111.286-110.186-221.654-221.242-332.94-331.429-5.454-5.409-17.004-7.059-25.483-6.508-20.35 1.238-40.839 8.571-60.685 6.829-97.443-8.571-147.174-112.66-114.082-185.171 31.030 56.238 79.569 64.948 135.166 53.902 7.517-53.902 6.92-105.007-50.877-137.502zM658.188 244.644c56.789-58.438 112.889-117.473 170.641-174.812 19.341-19.204 52.893-15.401 72.418 3.895 19.985 19.754 23.191 51.518 2.749 72.281-57.063 58.026-115.869 114.311-173.987 171.329-23.512-23.834-48.035-48.63-71.823-72.693zM311.589 722.652c-41.663 41.893-83.831 84.244-124.99 125.633-22.367-21.817-45.652-44.551-68.751-67.056 42.9-42.214 85.619-84.197 127.373-125.312 21.633 21.725 44.506 44.779 66.367 66.735z" />
<glyph unicode="&#xe945;" glyph-name="task-my" d="M713.6 748.8c0 3.2-3.2 9.6-9.6 9.6h-448c-3.2 0-6.4-3.2-6.4-9.6v-54.4c0-6.4 3.2-9.6 12.8-9.6h444.8c3.2 0 9.6 3.2 9.6 9.6v54.4h-3.2zM707.2 592h-444.8c-3.2 0-9.6-3.2-9.6-9.6v-57.6c0-3.2 3.2-9.6 9.6-9.6h444.8c3.2 0 9.6 3.2 9.6 9.6v54.4c-3.2 9.6-6.4 12.8-9.6 12.8zM473.6 425.6h-211.2c-6.4 0-9.6-3.2-9.6-9.6v-54.4c0-3.2 3.2-6.4 9.6-6.4h211.2c3.2 0 9.6 3.2 9.6 9.6v54.4c0 3.2-6.4 6.4-9.6 6.4zM387.2 67.2h-201.6c-16 0-28.8 9.6-28.8 28.8v761.6c0 16 9.6 28.8 28.8 28.8h592c19.2 0 28.8-16 28.8-28.8v-342.4c0-22.4 19.2-38.4 38.4-38.4h6.4c22.4 0 38.4 19.2 38.4 38.4v387.2c0 38.4-28.8 67.2-67.2 67.2h-684.8c-38.4 0-67.2-28.8-67.2-67.2v-851.2c0-38.4 28.8-67.2 67.2-67.2h249.6c22.4 0 38.4 19.2 38.4 38.4v6.4c3.2 22.4-16 38.4-38.4 38.4zM828.8 153.6c32 28.8 54.4 73.6 54.4 121.6 0 92.8-73.6 166.4-166.4 166.4s-166.4-73.6-166.4-166.4c0-48 22.4-92.8 54.4-121.6-67.2-38.4-112-108.8-115.2-188.8 0-3.2 3.2-9.6 9.6-9.6h54.4c3.2 0 6.4 3.2 9.6 6.4 3.2 83.2 70.4 144 153.6 144s147.2-64 153.6-144c0-3.2 3.2-6.4 9.6-6.4h54.4c3.2 0 9.6 3.2 9.6 9.6 0 83.2-48 153.6-115.2 188.8zM716.8 371.2c51.2 0 92.8-41.6 92.8-92.8s-41.6-92.8-92.8-92.8c-51.2 0-92.8 41.6-92.8 92.8s41.6 92.8 92.8 92.8z" />
<glyph unicode="&#xe946;" glyph-name="information" d="M552.96 215.040v286.72h-122.88v-40.96h81.92v-245.76h-81.92v-40.96h204.8v40.96h-81.92zM532.48-71.68v0 0c-282.77 0-512 229.23-512 512s229.23 512 512 512c282.77 0 512-229.23 512-512s-229.23-512-512-512zM532.48-30.72c260.148 0 471.040 210.892 471.040 471.040s-210.892 471.040-471.040 471.040c-260.148 0-471.040-210.892-471.040-471.040s210.892-471.040 471.040-471.040v0 0zM532.48 583.68c33.933 0 61.44 27.507 61.44 61.44s-27.507 61.44-61.44 61.44c-33.933 0-61.44-27.507-61.44-61.44s27.507-61.44 61.44-61.44v0 0z" />
</font>
</defs>
</svg>
